<svg width="30" height="30" viewBox="0 0 30 30" fill="none" xmlns="http://www.w3.org/2000/svg">
<path d="M2 25.5633V21.792H4.61557V6.88929C4.61557 6.07826 4.89436 5.39396 5.45195 4.83637C6.00953 4.27879 6.6837 4 7.47445 4H25.6314V6.88929H7.47445V21.792H13.5572V25.5633H2ZM16.3856 25.5633C15.9801 25.5633 15.6507 25.4163 15.3972 25.1223C15.1438 24.8283 15.017 24.4684 15.017 24.0426V9.71776C15.017 9.33252 15.1488 9.01318 15.4124 8.75973C15.676 8.50629 16.0004 8.37956 16.3856 8.37956H25.3273C25.7733 8.37956 26.1636 8.50122 26.4982 8.74453C26.8327 8.98783 27 9.31225 27 9.71776V24.073C27 24.4988 26.8378 24.8536 26.5134 25.1375C26.189 25.4213 25.8037 25.5633 25.3577 25.5633H16.3856ZM17.2068 21.792H24.8406V10.5389H17.2068V21.792Z" fill="white"/>
</svg>
