<svg width="30" height="30" viewBox="0 0 30 30" fill="none" xmlns="http://www.w3.org/2000/svg">
<path d="M16.7727 12.4205V11.0568C17.3977 10.7917 18.0369 10.5928 18.6903 10.4602C19.3438 10.3277 20.0303 10.2614 20.75 10.2614C21.2424 10.2614 21.7254 10.2992 22.1989 10.375C22.6723 10.4508 23.1364 10.5455 23.5909 10.6591V11.9091C23.1364 11.7386 22.6771 11.6108 22.2131 11.5256C21.7491 11.4403 21.2614 11.3977 20.75 11.3977C20.0303 11.3977 19.339 11.4877 18.6761 11.6676C18.0133 11.8475 17.3788 12.0985 16.7727 12.4205ZM16.7727 18.6705V17.2784C17.3977 17.0133 18.0369 16.8191 18.6903 16.696C19.3438 16.5729 20.0303 16.5114 20.75 16.5114C21.2424 16.5114 21.7254 16.5492 22.1989 16.625C22.6723 16.7008 23.1364 16.7955 23.5909 16.9091V18.1591C23.1364 17.9886 22.6771 17.8608 22.2131 17.7756C21.7491 17.6903 21.2614 17.6477 20.75 17.6477C20.0303 17.6477 19.339 17.733 18.6761 17.9034C18.0133 18.0739 17.3788 18.3295 16.7727 18.6705ZM16.7727 15.5455V14.1818C17.3977 13.9167 18.0369 13.7178 18.6903 13.5852C19.3438 13.4527 20.0303 13.3864 20.75 13.3864C21.2424 13.3864 21.7254 13.4242 22.1989 13.5C22.6723 13.5758 23.1364 13.6705 23.5909 13.7841V15.0341C23.1364 14.8636 22.6771 14.7358 22.2131 14.6506C21.7491 14.5653 21.2614 14.5227 20.75 14.5227C20.0303 14.5227 19.339 14.6127 18.6761 14.7926C18.0133 14.9725 17.3788 15.2235 16.7727 15.5455ZM7.90909 20.2045C8.93182 20.2045 9.9214 20.3229 10.8778 20.5597C11.8343 20.7964 12.7765 21.1515 13.7045 21.625V9.49432C12.8523 8.92614 11.929 8.4858 10.9347 8.1733C9.94034 7.8608 8.93182 7.70455 7.90909 7.70455C7.18939 7.70455 6.4839 7.79451 5.79261 7.97443C5.10133 8.15436 4.4053 8.37689 3.70455 8.64205V20.9716C4.29167 20.7064 4.95928 20.5123 5.70739 20.3892C6.45549 20.2661 7.18939 20.2045 7.90909 20.2045ZM15.4091 21.625C16.3561 21.1515 17.2841 20.7964 18.1932 20.5597C19.1023 20.3229 20.0682 20.2045 21.0909 20.2045C21.8106 20.2045 22.554 20.2614 23.321 20.375C24.0881 20.4886 24.7462 20.6402 25.2955 20.8295V8.64205C24.6515 8.32008 23.9697 8.08333 23.25 7.93182C22.5303 7.7803 21.8106 7.70455 21.0909 7.70455C20.0682 7.70455 19.0786 7.8608 18.1222 8.1733C17.1657 8.4858 16.2614 8.92614 15.4091 9.49432V21.625ZM14.5568 24.1818C13.5909 23.4621 12.5398 22.9081 11.4034 22.5199C10.267 22.1316 9.10227 21.9375 7.90909 21.9375C7.20833 21.9375 6.52652 22.0227 5.86364 22.1932C5.20076 22.3636 4.53788 22.572 3.875 22.8182C3.43939 23.0265 3.01799 22.9981 2.6108 22.733C2.2036 22.4678 2 22.089 2 21.5966V8.44318C2 8.15909 2.06629 7.89867 2.19886 7.66193C2.33144 7.42519 2.5303 7.24053 2.79545 7.10795C3.59091 6.72917 4.41951 6.44981 5.28125 6.26989C6.14299 6.08996 7.01894 6 7.90909 6C9.10227 6 10.2623 6.16099 11.3892 6.48295C12.5161 6.80492 13.572 7.29735 14.5568 7.96023C15.5227 7.29735 16.5597 6.80492 17.6676 6.48295C18.7756 6.16099 19.9167 6 21.0909 6C21.9811 6 22.8523 6.08996 23.7045 6.26989C24.5568 6.44981 25.3807 6.72917 26.1761 7.10795C26.4413 7.24053 26.6449 7.42519 26.7869 7.66193C26.929 7.89867 27 8.15909 27 8.44318V21.5966C27 22.1269 26.7869 22.5294 26.3608 22.804C25.9347 23.0786 25.5133 23.0833 25.0966 22.8182C24.4527 22.553 23.7992 22.34 23.1364 22.179C22.4735 22.018 21.7917 21.9375 21.0909 21.9375C19.8977 21.9375 18.7519 22.1364 17.6534 22.5341C16.5549 22.9318 15.5227 23.4811 14.5568 24.1818Z" fill="white"/>
</svg>
