<svg width="16" height="16" viewBox="0 0 16 16" fill="none" xmlns="http://www.w3.org/2000/svg">
<path d="M9.66863 11.4794C9.25108 11.4794 8.89973 11.3369 8.61457 11.0517C8.32942 10.7665 8.18684 10.4152 8.18684 9.99765C8.18684 9.5801 8.32942 9.22875 8.61457 8.9436C8.89973 8.65844 9.25108 8.51586 9.66863 8.51586C10.0862 8.51586 10.4375 8.65844 10.7227 8.9436C11.0078 9.22875 11.1504 9.5801 11.1504 9.99765C11.1504 10.4152 11.0078 10.7665 10.7227 11.0517C10.4375 11.3369 10.0862 11.4794 9.66863 11.4794ZM3.43596 14C3.03878 14 2.70016 13.86 2.42009 13.5799C2.14003 13.2998 2 12.9612 2 12.564V3.3678C2 2.97062 2.14003 2.62946 2.42009 2.3443C2.70016 2.05915 3.03878 1.91657 3.43596 1.91657H4.29142V1H5.54407V1.91657H10.2186V1H11.4712V1.91657H12.3267C12.7239 1.91657 13.065 2.05915 13.3502 2.3443C13.6353 2.62946 13.7779 2.97062 13.7779 3.3678V12.564C13.7779 12.9612 13.6353 13.2998 13.3502 13.5799C13.065 13.86 12.7239 14 12.3267 14H3.43596ZM3.43596 12.564H12.3267V6.13278H3.43596V12.564Z" fill="white"/>
</svg>
