<svg width="30" height="30" viewBox="0 0 30 30" fill="none" xmlns="http://www.w3.org/2000/svg">
<path d="M7 17.0312H16.7812V15.1562H7V17.0312ZM7 12.9688H22V11.0938H7V12.9688ZM7 8.90625H22V7.03125H7V8.90625ZM2 27V3.875C2 3.39583 2.1875 2.96354 2.5625 2.57813C2.9375 2.19271 3.375 2 3.875 2H25.125C25.6042 2 26.0365 2.19271 26.4219 2.57813C26.8073 2.96354 27 3.39583 27 3.875V20.125C27 20.6042 26.8073 21.0365 26.4219 21.4219C26.0365 21.8073 25.6042 22 25.125 22H7L2 27ZM3.875 22.4688L6.21875 20.125H25.125V3.875H3.875V22.4688Z" fill="white"/>
</svg>
