<svg width="30" height="30" viewBox="0 0 30 30" fill="none" xmlns="http://www.w3.org/2000/svg">
<path d="M8.25 21.2361C8.52778 21.2361 8.77083 21.1319 8.97917 20.9236C9.1875 20.7153 9.29167 20.4722 9.29167 20.1944C9.29167 19.9167 9.1875 19.6736 8.97917 19.4653C8.77083 19.2569 8.52778 19.1528 8.25 19.1528C7.97222 19.1528 7.72917 19.2569 7.52083 19.4653C7.3125 19.6736 7.20833 19.9167 7.20833 20.1944C7.20833 20.4722 7.3125 20.7153 7.52083 20.9236C7.72917 21.1319 7.97222 21.2361 8.25 21.2361ZM8.25 15.5417C8.52778 15.5417 8.77083 15.4375 8.97917 15.2292C9.1875 15.0208 9.29167 14.7778 9.29167 14.5C9.29167 14.2222 9.1875 13.9792 8.97917 13.7708C8.77083 13.5625 8.52778 13.4583 8.25 13.4583C7.97222 13.4583 7.72917 13.5625 7.52083 13.7708C7.3125 13.9792 7.20833 14.2222 7.20833 14.5C7.20833 14.7778 7.3125 15.0208 7.52083 15.2292C7.72917 15.4375 7.97222 15.5417 8.25 15.5417ZM8.25 9.84722C8.52778 9.84722 8.77083 9.74306 8.97917 9.53472C9.1875 9.32639 9.29167 9.08333 9.29167 8.80556C9.29167 8.52778 9.1875 8.28472 8.97917 8.07639C8.77083 7.86806 8.52778 7.76389 8.25 7.76389C7.97222 7.76389 7.72917 7.86806 7.52083 8.07639C7.3125 8.28472 7.20833 8.52778 7.20833 8.80556C7.20833 9.08333 7.3125 9.32639 7.52083 9.53472C7.72917 9.74306 7.97222 9.84722 8.25 9.84722ZM12.8333 21.2361H21.3056V19.1528H12.8333V21.2361ZM12.8333 15.5417H21.3056V13.4583H12.8333V15.5417ZM12.8333 9.84722H21.3056V7.76389H12.8333V9.84722ZM4.08333 27C3.52778 27 3.04167 26.7917 2.625 26.375C2.20833 25.9583 2 25.4722 2 24.9167V4.08333C2 3.52778 2.20833 3.04167 2.625 2.625C3.04167 2.20833 3.52778 2 4.08333 2H24.9167C25.4722 2 25.9583 2.20833 26.375 2.625C26.7917 3.04167 27 3.52778 27 4.08333V24.9167C27 25.4722 26.7917 25.9583 26.375 26.375C25.9583 26.7917 25.4722 27 24.9167 27H4.08333ZM4.08333 24.9167H24.9167V4.08333H4.08333V24.9167ZM4.08333 4.08333V24.9167V4.08333Z" fill="white"/>
</svg>
