<svg width="22" height="23" viewBox="0 0 22 23" fill="none" xmlns="http://www.w3.org/2000/svg">
<path d="M14.3015 15.3406L11.5984 18.0438C10.6204 19.0217 9.44462 19.5107 8.07107 19.5107C6.69751 19.5107 5.52175 19.0217 4.54378 18.0438C3.5658 17.0658 3.07407 15.8873 3.06858 14.5082C3.06308 13.1292 3.54932 11.9507 4.52729 10.9727L7.23045 8.26955L8.54907 9.58816L5.84591 12.2913C5.23055 12.9067 4.92013 13.6456 4.91464 14.5082C4.90914 15.3708 5.21956 16.1153 5.84591 16.7416C6.46126 17.357 7.20298 17.6647 8.07107 17.6647C8.93916 17.6647 9.68088 17.357 10.2962 16.7416L12.9994 14.0385L14.3015 15.3406ZM9.19189 14.4835L8.10403 13.3957L13.5433 7.95638L14.6312 9.04423L9.19189 14.4835ZM15.4883 14.1539L14.1861 12.8517L16.8893 10.1486C17.5047 9.53322 17.8151 8.79425 17.8206 7.93165C17.8261 7.06906 17.5156 6.32459 16.8893 5.69825C16.2739 5.0829 15.5322 4.77522 14.6641 4.77522C13.7961 4.77522 13.0543 5.0829 12.439 5.69825L9.73582 8.40141L8.4172 7.0828L11.1204 4.37964C12.0983 3.40166 13.2796 2.91268 14.6641 2.91268C16.0487 2.91268 17.2299 3.40166 18.2079 4.37964C19.1859 5.35761 19.6721 6.53612 19.6666 7.91517C19.6611 9.29422 19.1694 10.4727 18.1914 11.4507L15.4883 14.1539Z" fill="white"/>
</svg>
