<svg width="16" height="16" viewBox="0 0 16 16" fill="none" xmlns="http://www.w3.org/2000/svg">
<path d="M11.615 14H4.61V6.32L8.78 2L9.275 2.39C9.385 2.47 9.4575 2.56 9.4925 2.66C9.5275 2.76 9.545 2.875 9.545 3.005V3.155L8.87 6.32H13.7C13.93 6.32 14.1375 6.4125 14.3225 6.5975C14.5075 6.7825 14.6 6.99 14.6 7.22V8.45C14.6 8.56 14.5875 8.6875 14.5625 8.8325C14.5375 8.9775 14.5 9.105 14.45 9.215L12.71 13.235C12.62 13.445 12.4725 13.625 12.2675 13.775C12.0625 13.925 11.845 14 11.615 14ZM3.71 6.32V14H2V6.32H3.71Z" fill="white"/>
</svg>
