<svg width="16" height="16" viewBox="0 0 16 16" fill="none" xmlns="http://www.w3.org/2000/svg">
<path d="M11.5707 14.353H4.48531V6.77126L8.88866 2.35303L9.47731 2.75563C9.66385 2.89008 9.80599 3.05802 9.90373 3.25945C10.002 3.46137 10.0305 3.67594 9.98931 3.90317L9.97368 3.93442L9.39992 6.77126H13.4468C13.7981 6.77126 14.1004 6.89802 14.354 7.15154C14.607 7.40456 14.7335 7.7067 14.7335 8.05796V8.70912C14.7335 8.80239 14.7258 8.88524 14.7104 8.95768C14.6946 9.03011 14.6712 9.1023 14.6405 9.17424L12.7644 13.5776C12.6612 13.8048 12.5009 13.9909 12.2836 14.1357C12.0668 14.2806 11.8292 14.353 11.5707 14.353ZM5.71024 13.0656H11.5707L13.4312 8.70912V8.05796H7.88103L8.59396 4.47693L5.71024 7.36066V13.0656ZM4.48531 6.77126V8.05796H2.3614V13.0656H4.48531V14.353H1.07471V6.77126H4.48531Z" fill="white"/>
</svg>
