<svg width="30" height="30" viewBox="0 0 30 30" fill="none" xmlns="http://www.w3.org/2000/svg">
<path d="M25.1623 28L16.4591 19.2968L18.4355 17.3204L27.1387 26.0236L25.1623 28ZM5.01664 28L3.04022 26.0236L13.0957 15.9681L9.38558 12.258L8.58807 13.0555L7.06241 11.5298V14.4771L6.23024 15.3093L2 11.0791L2.83218 10.2469H5.81415L4.14979 8.58252L8.69209 4.04022C9.08507 3.64725 9.51271 3.38141 9.97503 3.24272C10.4374 3.10402 10.9459 3.03467 11.5007 3.03467C12.0555 3.03467 12.564 3.13292 13.0264 3.3294C13.4887 3.52589 13.9163 3.82062 14.3093 4.21359L10.5992 7.92372L12.2635 9.58807L11.4313 10.4202L15.0374 14.0264L19.2677 9.79612C19.0828 9.49561 18.9383 9.14887 18.8343 8.75589C18.7302 8.36292 18.6782 7.94683 18.6782 7.50763C18.6782 6.28248 19.1232 5.22492 20.0132 4.33495C20.9031 3.44498 21.9607 3 23.1859 3C23.5326 3 23.8273 3.03467 24.07 3.10402C24.3128 3.17337 24.515 3.26583 24.6768 3.38141L21.7295 6.32871L24.3301 8.92927L27.2774 5.98197C27.393 6.1669 27.4912 6.39228 27.5721 6.65811C27.653 6.92395 27.6935 7.23024 27.6935 7.57698C27.6935 8.80213 27.2485 9.85969 26.3585 10.7497C25.4686 11.6396 24.411 12.0846 23.1859 12.0846C22.7698 12.0846 22.4115 12.0557 22.111 11.9979C21.8104 11.9401 21.5331 11.8534 21.2788 11.7379L5.01664 28Z" fill="white"/>
</svg>
