<?xml version="1.0" encoding="utf-8"?>
<!-- Generator: Adobe Illustrator 15.0.0, SVG Export Plug-In . SVG Version: 6.00 Build 0)  -->
<!DOCTYPE svg PUBLIC "-//W3C//DTD SVG 1.1//EN" "http://www.w3.org/Graphics/SVG/1.1/DTD/svg11.dtd">
<svg version="1.1" id="Ebene_1" xmlns="http://www.w3.org/2000/svg" xmlns:xlink="http://www.w3.org/1999/xlink" x="0px" y="0px"
	 width="663px" height="153px" viewBox="1257 1653 1105 255" enable-background="new 0 0 3543.311 3543.31"
	 xml:space="preserve">
<g>
	<path fill="#FFFFFF" d="M1312.787,1706.791l-17.525-7.148v17.986l17.525,7.84V1706.791L1312.787,1706.791z M1369.606,1731.575
		L1369.606,1731.575z"/>
	<path fill="none" stroke="#FFFFFF" stroke-width="1.627" stroke-linecap="round" stroke-linejoin="round" d="M1312.787,1706.791
		l-17.525-7.148v17.986l17.525,7.84V1706.791L1312.787,1706.791z M1369.606,1731.575L1369.606,1731.575z"/>
	<polygon fill="#FFFFFF" points="1378.045,1700.104 1378.045,1684.654 1312.787,1706.791 1312.787,1723.163 1378.045,1700.104 	"/>
	<polygon fill="none" stroke="#FFFFFF" stroke-width="1.627" stroke-linecap="round" stroke-linejoin="round" points="
		1378.045,1700.104 1378.045,1684.654 1312.787,1706.791 1312.787,1723.163 1378.045,1700.104 	"/>
	<polyline fill="#FFFFFF" points="1464.057,1802.717 1445.84,1795.338 1445.84,1738.788 	"/>
	<polyline fill="none" stroke="#FFFFFF" stroke-width="1.627" stroke-linecap="round" stroke-linejoin="round" points="
		1464.057,1802.717 1445.84,1795.338 1445.84,1738.788 	"/>
	<polyline fill="#FFFFFF" points="1428.083,1718.782 1378.045,1700.104 1378.045,1684.653 	"/>
	<polyline fill="none" stroke="#FFFFFF" stroke-width="1.627" stroke-linecap="round" stroke-linejoin="round" points="
		1428.083,1718.782 1378.045,1700.104 1378.045,1684.653 	"/>
	<path fill="#FFFFFF" d="M1412.404,1735.846l-18.217-7.61v21.1l18.217,8.417V1735.846L1412.404,1735.846z M1472.817,1762.542
		L1472.817,1762.542z"/>
	<path fill="none" stroke="#FFFFFF" stroke-width="1.627" stroke-linecap="round" stroke-linejoin="round" d="M1412.404,1735.846
		l-18.217-7.61v21.1l18.217,8.417V1735.846L1412.404,1735.846z M1472.817,1762.542L1472.817,1762.542z"/>
	<polygon fill="#FFFFFF" points="1464.057,1736.076 1464.057,1802.717 1481.582,1794.417 1481.582,1708.635 1412.404,1735.846 
		1412.404,1757.752 1464.057,1736.076 	"/>
	<polygon fill="none" stroke="#FFFFFF" stroke-width="1.627" stroke-linecap="round" stroke-linejoin="round" points="
		1464.057,1736.076 1464.057,1802.717 1481.582,1794.417 1481.582,1708.635 1412.404,1735.846 1412.404,1757.752 1464.057,1736.076 
			"/>
	<polygon fill="#FFFFFF" points="1481.582,1708.635 1377.814,1673.124 1295.261,1699.642 1312.787,1706.791 1378.045,1684.653 
		1446.762,1709.097 1394.302,1728.121 1412.404,1735.846 1481.582,1708.635 	"/>
	<polygon fill="none" stroke="#FFFFFF" stroke-width="1.627" stroke-linecap="round" stroke-linejoin="round" points="
		1481.582,1708.635 1377.814,1673.124 1295.261,1699.642 1312.787,1706.791 1378.045,1684.653 1446.762,1709.097 1394.302,1728.121 
		1412.404,1735.846 1481.582,1708.635 	"/>
	<polygon fill="#FFFFFF" points="1276.813,1727.89 1292.033,1734.116 1309.789,1728.697 1294.339,1722.356 1276.813,1727.89 	"/>
	<polygon fill="none" stroke="#FFFFFF" stroke-width="1.627" stroke-linejoin="round" points="1276.813,1727.89 1292.033,1734.116 
		1309.789,1728.697 1294.339,1722.356 1276.813,1727.89 	"/>
	<polygon fill="#FFFFFF" points="1481.582,1811.481 1464.057,1803.871 1381.043,1842.15 1400.413,1851.834 1481.582,1811.481 	"/>
	<polygon fill="none" stroke="#FFFFFF" stroke-width="1.627" stroke-linejoin="round" points="1481.582,1811.481 1464.057,1803.871 
		1381.043,1842.15 1400.413,1851.834 1481.582,1811.481 	"/>
	<path fill="#FFFFFF" d="M1362.595,1840.765c0-0.566,0-4.156,0-9.529c-1.55,0.771-4.516-0.598-4.516-0.598l-48.18-24.405
		l0.121-0.057l-0.104-69.493l-10.043-4.412v-0.583l-7.84,2.428v80.131c0,0,0.092,0.048,0.235,0.122l0,0
		c3.964,2.052,60.635,31.383,63.409,32.392C1358.214,1847.683,1362.595,1846.531,1362.595,1840.765L1362.595,1840.765z"/>
	<path fill="none" stroke="#FFFFFF" stroke-width="1.627" stroke-linejoin="round" d="M1362.595,1840.765c0-0.566,0-4.156,0-9.529
		c-1.55,0.771-4.516-0.598-4.516-0.598l-48.18-24.405l0.121-0.057l-0.104-69.493l-10.043-4.412v-0.583l-7.84,2.428v80.131
		c0,0,0.092,0.048,0.235,0.122l0,0c3.964,2.052,60.635,31.383,63.409,32.392C1358.214,1847.683,1362.595,1846.531,1362.595,1840.765
		L1362.595,1840.765z"/>
	<path fill="#FFFFFF" d="M1372.359,1750.979"/>
	<path fill="none" stroke="#FFFFFF" stroke-width="1.627" stroke-linejoin="round" d="M1372.359,1750.979"/>
	<path fill="#FFFFFF" d="M1409.322,1847.611"/>
	<path fill="none" stroke="#FFFFFF" stroke-width="1.627" stroke-linejoin="round" d="M1409.322,1847.611"/>
	<path fill="#FFFFFF" d="M1400.413,1841.438"/>
	<path fill="none" stroke="#FFFFFF" stroke-width="1.627" stroke-linejoin="round" d="M1400.413,1841.438"/>
	<path fill="#FFFFFF" d="M1481.582,1827.623v-16.142l-71.023,35.28c0,0-6.456,3.69-9.224-0.23c-0.797-1.13-0.922-5.093-0.922-5.093
		v-99.754l-19.372,7.631c-0.021,12.072-0.186,108.92-0.095,112.666c0.097,3.995,9.09,11.529,16.469,8.302
		C1403.242,1867.734,1481.582,1827.623,1481.582,1827.623L1481.582,1827.623z M1399.056,1740.501l-82.349-32.327l-17.064,5.188
		l80.687,34.515L1399.056,1740.501L1399.056,1740.501z"/>
	<path fill="none" stroke="#FFFFFF" stroke-width="1.627" stroke-linecap="round" stroke-linejoin="round" d="M1481.582,1827.623
		v-16.142l-71.023,35.28c0,0-6.456,3.69-9.224-0.23c-0.797-1.13-0.922-5.093-0.922-5.093v-99.754l-19.372,7.631
		c-0.021,12.072-0.186,108.92-0.095,112.666c0.097,3.995,9.09,11.529,16.469,8.302
		C1403.242,1867.734,1481.582,1827.623,1481.582,1827.623L1481.582,1827.623z M1399.056,1740.501l-82.349-32.327l-17.064,5.188
		l80.687,34.515L1399.056,1740.501L1399.056,1740.501z"/>
	<g transform="translate(1553, 1770.5) scale(2.19) translate(-1553, -1733.42)">
	<path fill="#FFFFFF" d="M1553.62,1777.567h70.493c5.497,0,10.191-1.945,14.084-5.838c3.94-3.941,5.911-8.635,5.911-14.084v-48.455
		c0-5.497-1.947-10.191-5.838-14.084c-3.893-3.892-8.611-5.838-14.157-5.838h-70.493V1777.567L1553.62,1777.567z M1621.267,1700.141
		c3.065,0,5.594,1.022,7.589,3.065c2.043,1.995,3.065,4.524,3.065,7.589v45.244c0.048,2.968-0.949,5.473-2.992,7.516
		s-4.597,3.065-7.662,3.065h-55.46v-66.479H1621.267L1621.267,1700.141z"/>
	<path fill="#FFFFFF" d="M1712.959,1777.567v-10.946h-29.242c-3.017,0-5.546-0.997-7.59-2.992c-1.946-1.994-2.944-4.524-2.992-7.589
		v-66.771h-12.186v68.376c0,5.449,1.945,10.143,5.838,14.084c3.94,3.893,8.635,5.838,14.084,5.838H1712.959L1712.959,1777.567z"/>
	<path fill="#FFFFFF" d="M1835.303,1695.106c-3.893,3.893-5.837,8.587-5.837,14.084v48.455c0,5.449,1.944,10.143,5.837,14.084
		c3.941,3.893,8.635,5.838,14.084,5.838h64.436v-11.165h-61.59c-3.017-0.048-5.546-1.046-7.589-2.992
		c-1.946-2.043-2.944-4.572-2.992-7.589v-44.806c0.048-3.112,1.046-5.643,2.992-7.589c2.043-2.043,4.572-3.04,7.589-2.992h61.59
		v-11.165h-64.436l0,0C1843.938,1689.268,1839.244,1691.214,1835.303,1695.106L1835.303,1695.106L1835.303,1695.106z"/>
	<path fill="#FFFFFF" d="M1817.961,1751.892c0-4.434-0.628-8.157-1.883-11.168c-1.254-3.012-3.409-5.478-6.463-7.404
		c-3.055-1.923-7.195-3.345-12.423-4.267c-5.229-0.919-11.817-1.462-19.765-1.631l-26.98-0.627
		c-5.605-0.082-10.123-0.376-13.552-0.878c-3.431-0.502-6.067-1.274-7.906-2.322c-1.841-1.045-3.055-2.425-3.639-4.141
		c-0.586-1.714-0.878-3.91-0.878-6.588c0-2.341,0.229-4.412,0.69-6.211c0.459-1.798,1.337-3.304,2.635-4.518
		c1.296-1.212,3.053-2.133,5.271-2.761c2.215-0.627,5.082-0.941,8.595-0.941h63.163c1.09,0,2.132,0.025,3.132,0.071v-9.076
		c-0.38-0.006-0.737-0.03-1.123-0.03h-64.794c-9.035,0-15.749,1.841-20.141,5.521c-4.392,3.682-6.588,9.621-6.588,17.819
		c0,3.934,0.439,7.322,1.318,10.165c0.878,2.845,2.572,5.188,5.082,7.027c2.51,1.841,5.979,3.222,10.415,4.141
		c4.434,0.922,10.206,1.465,17.318,1.631l30.493,0.753c6.106,0.168,11.062,0.523,14.87,1.067c3.806,0.545,6.755,1.402,8.847,2.572
		c2.09,1.172,3.492,2.698,4.204,4.58c0.71,1.883,1.067,4.204,1.067,6.965c0,5.941-1.632,10.061-4.895,12.36
		c-3.263,2.302-8.325,3.451-15.184,3.451h-66.012v9.035h66.514c5.02,0,9.327-0.418,12.925-1.255
		c3.597-0.835,6.566-2.216,8.909-4.141c2.342-1.924,4.057-4.455,5.146-7.592C1817.416,1760.362,1817.961,1756.494,1817.961,1751.892
		L1817.961,1751.892z"/>
	<path fill="none" stroke="#FFFFFF" stroke-width="2.158" d="M1817.961,1751.892c0-4.434-0.628-8.157-1.883-11.168
		c-1.254-3.012-3.409-5.478-6.463-7.404c-3.055-1.923-7.195-3.345-12.423-4.267c-5.229-0.919-11.817-1.462-19.765-1.631
		l-26.98-0.627c-5.605-0.082-10.123-0.376-13.552-0.878c-3.431-0.502-6.067-1.274-7.906-2.322c-1.841-1.045-3.055-2.425-3.639-4.141
		c-0.586-1.714-0.878-3.91-0.878-6.588c0-2.341,0.229-4.412,0.69-6.211c0.459-1.798,1.337-3.304,2.635-4.518
		c1.296-1.212,3.053-2.133,5.271-2.761c2.215-0.627,5.082-0.941,8.595-0.941h63.163c1.09,0,2.132,0.025,3.132,0.071v-9.076
		c-0.38-0.006-0.737-0.03-1.123-0.03h-64.794c-9.035,0-15.749,1.841-20.141,5.521c-4.392,3.682-6.588,9.621-6.588,17.819
		c0,3.934,0.439,7.322,1.318,10.165c0.878,2.845,2.572,5.188,5.082,7.027c2.51,1.841,5.979,3.222,10.415,4.141
		c4.434,0.922,10.206,1.465,17.318,1.631l30.493,0.753c6.106,0.168,11.062,0.523,14.87,1.067c3.806,0.545,6.755,1.402,8.847,2.572
		c2.09,1.172,3.492,2.698,4.204,4.58c0.71,1.883,1.067,4.204,1.067,6.965c0,5.941-1.632,10.061-4.895,12.36
		c-3.263,2.302-8.325,3.451-15.184,3.451h-66.012v9.035h66.514c5.02,0,9.327-0.418,12.925-1.255
		c3.597-0.835,6.566-2.216,8.909-4.141c2.342-1.924,4.057-4.455,5.146-7.592C1817.416,1760.362,1817.961,1756.494,1817.961,1751.892
		L1817.961,1751.892z"/>
	</g>
	<path fill="none" stroke="#FFFFFF" stroke-width="1.627" d="M1378.939,1749.417l24.521-9.921 M1290.725,1735.034l10.262-3.899"/>
	<path fill="#FFFFFF" d="M1276.813,1728.05l15.22,5.95v80.247c0,0,60.77,31.469,63.644,32.514c2.537,0.922,6.918-0.23,6.918-5.994
		c0-2.836,0-80.939,0-80.939l-62.921-27.556v-18.793l81.37,34.589c0,0,0,110.54,0,112.53c0,5.766-10.146,13.375-20.292,8.532
		c-4.614-2.202-83.938-45.151-83.938-45.151V1728.05L1276.813,1728.05z"/>
	<path fill="none" stroke="#FFFFFF" stroke-width="1.627" stroke-linejoin="round" d="M1276.813,1728.05l15.22,5.95v80.247
		c0,0,60.77,31.469,63.644,32.514c2.537,0.922,6.918-0.23,6.918-5.994c0-2.836,0-80.939,0-80.939l-62.921-27.556v-18.793
		l81.37,34.589c0,0,0,110.54,0,112.53c0,5.766-10.146,13.375-20.292,8.532c-4.614-2.202-83.938-45.151-83.938-45.151V1728.05
		L1276.813,1728.05z"/>
	<line fill="none" stroke="#FFFFFF" stroke-width="1.627" x1="1290.725" y1="1735.034" x2="1297.842" y2="1732.33"/>
</g>
</svg>
