<svg width="28" height="25" viewBox="0 0 28 25" fill="none" xmlns="http://www.w3.org/2000/svg">
<path d="M8.79164 25V22.2222H2.19442C1.63886 22.2222 1.15275 22.0139 0.736084 21.5972C0.319417 21.1806 0.111084 20.6944 0.111084 20.1389V2.08333C0.111084 1.52778 0.319417 1.04167 0.736084 0.625C1.15275 0.208333 1.63886 0 2.19442 0H14.6944V2.08333H2.19442V20.1389H25.8055V15.2778H27.8889V20.1389C27.8889 20.6944 27.6805 21.1806 27.2639 21.5972C26.8472 22.0139 26.3611 22.2222 25.8055 22.2222H19.2083V25H8.79164ZM20.9444 14.7917L14.4861 8.33333L15.9444 6.875L19.9027 10.8333V0H21.9861V10.8333L25.9444 6.875L27.4027 8.33333L20.9444 14.7917Z" fill="#232323"/>
</svg>
