<svg width="187" height="27" viewBox="0 0 187 27" fill="none" xmlns="http://www.w3.org/2000/svg">
<path d="M15.3574 1.76437V19.7001C15.3574 20.7829 15.1809 21.7597 14.8278 22.6306C14.4747 23.5015 13.9687 24.2547 13.3096 24.8902C12.6741 25.5022 11.8856 25.9847 10.9441 26.3378C10.0261 26.6673 9.00221 26.8321 7.8724 26.8321C5.73046 26.8321 4.03574 26.2672 2.78824 25.1374C1.56428 23.984 0.787536 22.4894 0.458008 20.6534L4.1299 19.8414C4.34173 20.9006 4.74188 21.7361 5.33032 22.3481C5.9423 22.9601 6.78966 23.2661 7.8724 23.2661C8.93159 23.2661 9.77895 22.9366 10.4145 22.2775C11.05 21.6185 11.3678 20.6181 11.3678 19.2765V5.08319H3.31784V1.76437H15.3574Z" fill="white"/>
<path d="M21.2977 26.4084V1.76437H36.6914V5.29503H25.2874V12.1445H35.4204V15.6752H25.2874V26.4084H21.2977Z" fill="white"/>
<path d="M60.2166 26.4084H55.5209L49.5541 16.5931H49.4481L43.5519 26.4084H39.1386L47.1179 13.8039L39.4211 1.76437H44.1168L49.7306 10.9441H49.8012L55.4856 1.76437H59.8989L52.1314 13.7686L60.2166 26.4084Z" fill="white"/>
<path d="M81.5771 26.8321C78.3525 26.8321 75.8222 25.7493 73.9862 23.5839C72.1503 21.3948 71.2323 18.229 71.2323 14.0864C71.2323 12.0151 71.4677 10.1909 71.9384 8.61385C72.4092 7.03683 73.0918 5.70694 73.9862 4.62421C74.8807 3.54147 75.9634 2.72942 77.2344 2.18805C78.529 1.62314 79.9766 1.34069 81.5771 1.34069C83.7191 1.34069 85.5079 1.81145 86.9437 2.75296C88.4031 3.69447 89.5447 5.08319 90.3685 6.91914L87.0144 8.75508C86.5907 7.57819 85.9316 6.64845 85.0372 5.96586C84.1663 5.25973 83.0129 4.90666 81.5771 4.90666C79.6706 4.90666 78.1759 5.55395 77.0932 6.84852C76.0105 8.1431 75.4691 9.93197 75.4691 12.2151V15.9576C75.4691 18.2408 76.0105 20.0297 77.0932 21.3242C78.1759 22.6188 79.6706 23.2661 81.5771 23.2661C83.06 23.2661 84.2605 22.8895 85.1784 22.1363C86.1199 21.3595 86.8143 20.371 87.2615 19.1705L90.4744 21.1124C89.6506 22.9013 88.4972 24.3018 87.0144 25.3139C85.5315 26.326 83.7191 26.8321 81.5771 26.8321Z" fill="white"/>
<path d="M101.624 26.8321C100.306 26.8321 99.1288 26.6085 98.0932 26.1612C97.0575 25.714 96.1749 25.0785 95.4452 24.2547C94.7155 23.4073 94.1506 22.3952 93.7505 21.2183C93.3739 20.0179 93.1856 18.688 93.1856 17.2287C93.1856 15.7693 93.3739 14.4512 93.7505 13.2743C94.1506 12.0739 94.7155 11.0618 95.4452 10.238C96.1749 9.3906 97.0575 8.74331 98.0932 8.29609C99.1288 7.84888 100.306 7.62527 101.624 7.62527C102.965 7.62527 104.142 7.86065 105.155 8.3314C106.19 8.80216 107.049 9.46121 107.732 10.3086C108.414 11.1324 108.921 12.0974 109.25 13.2037C109.603 14.31 109.78 15.4986 109.78 16.7697V18.2173H97.1752V18.8175C97.1752 20.2297 97.5871 21.3948 98.4109 22.3128C99.2583 23.2073 100.459 23.6545 102.012 23.6545C103.142 23.6545 104.095 23.4073 104.872 22.913C105.649 22.4187 106.308 21.7479 106.849 20.9006L109.109 23.1249C108.426 24.2547 107.438 25.1609 106.143 25.8435C104.849 26.5025 103.342 26.8321 101.624 26.8321ZM101.624 10.6263C100.965 10.6263 100.353 10.744 99.7879 10.9794C99.2465 11.2148 98.7758 11.5443 98.3756 11.968C97.999 12.3917 97.7048 12.8977 97.493 13.4862C97.2811 14.0746 97.1752 14.7219 97.1752 15.428V15.6752H105.719V15.3221C105.719 13.9098 105.355 12.78 104.625 11.9327C103.895 11.0618 102.895 10.6263 101.624 10.6263Z" fill="white"/>
<path d="M114.04 26.4084V8.04895H117.888V11.0853H118.065C118.465 10.0967 119.065 9.27291 119.866 8.61385C120.689 7.9548 121.807 7.62527 123.22 7.62527C125.103 7.62527 126.562 8.24902 127.598 9.49652C128.657 10.7205 129.186 12.474 129.186 14.7572V26.4084H125.338V15.2515C125.338 12.3799 124.185 10.9441 121.878 10.9441C121.384 10.9441 120.889 11.0147 120.395 11.1559C119.924 11.2736 119.501 11.4619 119.124 11.7208C118.747 11.9798 118.441 12.3093 118.206 12.7094C117.994 13.1096 117.888 13.5803 117.888 14.1217V26.4084H114.04Z" fill="white"/>
<path d="M139.605 26.4084C138.263 26.4084 137.251 26.0671 136.568 25.3845C135.886 24.6784 135.544 23.6898 135.544 22.4187V11.1912H132.685V8.04895H134.238C134.874 8.04895 135.309 7.90772 135.544 7.62527C135.803 7.34282 135.933 6.88383 135.933 6.24831V3.03541H139.393V8.04895H143.241V11.1912H139.393V23.2661H142.959V26.4084H139.605Z" fill="white"/>
<path d="M147.416 26.4084V8.04895H151.264V11.5796H151.441C151.7 10.6381 152.241 9.81428 153.065 9.10815C153.889 8.40201 155.03 8.04895 156.489 8.04895H157.513V11.7561H155.995C154.465 11.7561 153.288 12.0033 152.465 12.4976C151.664 12.9919 151.264 13.7215 151.264 14.6866V26.4084H147.416Z" fill="white"/>
<path d="M174.107 26.4084C173.095 26.4084 172.319 26.1259 171.777 25.561C171.236 24.9726 170.906 24.2311 170.789 23.3367H170.612C170.259 24.4901 169.612 25.361 168.67 25.9494C167.729 26.5378 166.587 26.8321 165.246 26.8321C163.339 26.8321 161.868 26.3378 160.832 25.3492C159.82 24.3606 159.314 23.0307 159.314 21.3595C159.314 19.5236 159.973 18.1466 161.291 17.2287C162.633 16.3107 164.586 15.8517 167.152 15.8517H170.471V14.2982C170.471 13.1684 170.165 12.2975 169.553 11.6855C168.941 11.0735 167.988 10.7676 166.693 10.7676C165.61 10.7676 164.728 11.0029 164.045 11.4737C163.363 11.9444 162.786 12.5447 162.315 13.2743L160.02 11.1912C160.632 10.1556 161.491 9.30822 162.598 8.64916C163.704 7.96657 165.151 7.62527 166.94 7.62527C169.318 7.62527 171.142 8.17841 172.413 9.28468C173.684 10.391 174.319 11.9798 174.319 14.0511V23.2661H176.261V26.4084H174.107ZM166.34 23.9016C167.54 23.9016 168.529 23.6427 169.306 23.1249C170.083 22.5835 170.471 21.8656 170.471 20.9712V18.3232H167.223C164.563 18.3232 163.233 19.147 163.233 20.7946V21.4302C163.233 22.254 163.504 22.8777 164.045 23.3014C164.61 23.7015 165.375 23.9016 166.34 23.9016Z" fill="white"/>
<path d="M183.952 26.4084C182.634 26.4084 181.645 26.0789 180.986 25.4198C180.351 24.7372 180.033 23.7957 180.033 22.5953V0.281494H183.881V23.2661H186.423V26.4084H183.952Z" fill="white"/>
</svg>
