<svg width="30" height="30" viewBox="0 0 30 30" fill="none" xmlns="http://www.w3.org/2000/svg">
<path d="M3.875 26.5806C3.35417 26.5806 2.91146 26.3977 2.54688 26.0318C2.18229 25.6659 2 25.2216 2 24.6989V4L4.09375 6.10125L6.15625 4L8.25 6.10125L10.3438 4L12.4062 6.10125L14.5 4L16.5938 6.10125L18.6562 4L20.75 6.10125L22.8438 4L24.9062 6.10125L27 4V24.6989C27 25.2216 26.8177 25.6659 26.4531 26.0318C26.0885 26.3977 25.6458 26.5806 25.125 26.5806H3.875ZM3.875 24.6989H13.5625V15.9176H3.875V24.6989ZM15.4375 24.6989H25.125V21.2491H15.4375V24.6989ZM15.4375 19.3674H25.125V15.9176H15.4375V19.3674ZM3.875 14.0358H25.125V10.2724H3.875V14.0358Z" fill="white"/>
</svg>
