<svg width="16" height="16" viewBox="0 0 16 16" fill="none" xmlns="http://www.w3.org/2000/svg">
<path d="M7.5 11.3275C8.28 11.3275 8.93542 11.0621 9.46625 10.5312C9.99708 10.0004 10.2625 9.33958 10.2625 8.54875C10.2625 7.76875 9.99708 7.11604 9.46625 6.59062C8.93542 6.06521 8.28 5.8025 7.5 5.8025C6.70917 5.8025 6.05104 6.06521 5.52562 6.59062C5.00021 7.11604 4.7375 7.76875 4.7375 8.54875C4.7375 9.33958 5.00021 10.0004 5.52562 10.5312C6.05104 11.0621 6.70917 11.3275 7.5 11.3275ZM7.5 10.3525C6.98 10.3525 6.55208 10.1819 6.21625 9.84062C5.88042 9.49937 5.7125 9.06875 5.7125 8.54875C5.7125 8.03958 5.88042 7.61708 6.21625 7.28125C6.55208 6.94542 6.98 6.7775 7.5 6.7775C8.00917 6.7775 8.43437 6.94542 8.77562 7.28125C9.11687 7.61708 9.2875 8.03958 9.2875 8.54875C9.2875 9.06875 9.11687 9.49937 8.77562 9.84062C8.43437 10.1819 8.00917 10.3525 7.5 10.3525ZM1.975 13.7C1.715 13.7 1.4875 13.6025 1.2925 13.4075C1.0975 13.2125 1 12.985 1 12.725V4.38875C1 4.13958 1.0975 3.91479 1.2925 3.71437C1.4875 3.51396 1.715 3.41375 1.975 3.41375H4.36375L5.55 2H9.45L10.6363 3.41375H13.025C13.2742 3.41375 13.499 3.51396 13.6994 3.71437C13.8998 3.91479 14 4.13958 14 4.38875V12.725C14 12.985 13.8998 13.2125 13.6994 13.4075C13.499 13.6025 13.2742 13.7 13.025 13.7H1.975ZM13.025 12.725V4.38875H10.1812L8.995 2.975H6.005L4.81875 4.38875H1.975V12.725H13.025Z" fill="white"/>
</svg>
