<svg width="22" height="22" viewBox="0 0 22 22" fill="none" xmlns="http://www.w3.org/2000/svg">
<path d="M8.55714 20L6.92857 17.2143L3.69286 16.55L4.05714 13.4L2 11L4.05714 8.62143L3.69286 5.47143L6.92857 4.80714L8.55714 2L11.4286 3.32857L14.3 2L15.95 4.80714L19.1643 5.47143L18.8 8.62143L20.8571 11L18.8 13.4L19.1643 16.55L15.95 17.2143L14.3 20L11.4286 18.6714L8.55714 20ZM9.13571 18.3071L11.4286 17.3429L13.7857 18.3071L15.2214 16.1643L17.7286 15.5214L17.4714 12.9714L19.2071 11L17.4714 8.98571L17.7286 6.43571L15.2214 5.83571L13.7429 3.69286L11.4286 4.65714L9.07143 3.69286L7.63571 5.83571L5.12857 6.43571L5.38571 8.98571L3.65 11L5.38571 12.9714L5.12857 15.5643L7.63571 16.1643L9.13571 18.3071ZM10.5071 13.85L15.3714 9.02857L14.4071 8.15L10.5071 12.0071L8.47143 9.88571L7.48571 10.85L10.5071 13.85Z" fill="white"/>
</svg>
