<svg width="16" height="16" viewBox="0 0 16 16" fill="none" xmlns="http://www.w3.org/2000/svg">
<path d="M8 10.4091C8.64545 10.4091 9.19318 10.1841 9.64318 9.73409C10.0932 9.28409 10.3182 8.73636 10.3182 8.09091C10.3182 7.44545 10.0932 6.89773 9.64318 6.44773C9.19318 5.99773 8.64545 5.77273 8 5.77273C7.35455 5.77273 6.80682 5.99773 6.35682 6.44773C5.90682 6.89773 5.68182 7.44545 5.68182 8.09091C5.68182 8.73636 5.90682 9.28409 6.35682 9.73409C6.80682 10.1841 7.35455 10.4091 8 10.4091ZM8 9.61818C7.57273 9.61818 7.21136 9.47045 6.91591 9.175C6.62045 8.87955 6.47273 8.51818 6.47273 8.09091C6.47273 7.66364 6.62045 7.30227 6.91591 7.00682C7.21136 6.71136 7.57273 6.56364 8 6.56364C8.42727 6.56364 8.78864 6.71136 9.08409 7.00682C9.37955 7.30227 9.52727 7.66364 9.52727 8.09091C9.52727 8.51818 9.37955 8.87955 9.08409 9.175C8.78864 9.47045 8.42727 9.61818 8 9.61818ZM8 12.1818C6.67273 12.1818 5.47273 11.8045 4.4 11.05C3.32727 10.2955 2.52727 9.30909 2 8.09091C2.52727 6.87273 3.32727 5.88636 4.4 5.13182C5.47273 4.37727 6.67273 4 8 4C9.32727 4 10.5273 4.37727 11.6 5.13182C12.6727 5.88636 13.4727 6.87273 14 8.09091C13.4727 9.30909 12.6727 10.2955 11.6 11.05C10.5273 11.8045 9.32727 12.1818 8 12.1818ZM8 11.3636C9.1 11.3636 10.1114 11.0659 11.0341 10.4705C11.9568 9.875 12.6591 9.08182 13.1409 8.09091C12.6591 7.1 11.9568 6.30682 11.0341 5.71136C10.1114 5.11591 9.1 4.81818 8 4.81818C6.9 4.81818 5.88864 5.11591 4.96591 5.71136C4.04318 6.30682 3.33636 7.1 2.84545 8.09091C3.33636 9.08182 4.04318 9.875 4.96591 10.4705C5.88864 11.0659 6.9 11.3636 8 11.3636Z" fill="white"/>
</svg>
