<svg width="16" height="16" viewBox="0 0 16 16" fill="none" xmlns="http://www.w3.org/2000/svg">
<path d="M10.0318 9.08182L9.43182 8.48182C9.66818 7.83636 9.54545 7.3 9.06364 6.87273C8.58182 6.44545 8.05909 6.33636 7.49545 6.54545L6.89545 5.94545C7.05 5.84545 7.22273 5.77273 7.41364 5.72727C7.60455 5.68182 7.8 5.65909 8 5.65909C8.64545 5.65909 9.19318 5.88409 9.64318 6.33409C10.0932 6.78409 10.3182 7.33182 10.3182 7.97727C10.3182 8.17727 10.2932 8.375 10.2432 8.57045C10.1932 8.76591 10.1227 8.93636 10.0318 9.08182ZM11.7909 10.8409L11.2455 10.2955C11.6909 9.96818 12.0795 9.60227 12.4114 9.19773C12.7432 8.79318 12.9864 8.38636 13.1409 7.97727C12.6864 6.96818 12.0045 6.17045 11.0955 5.58409C10.1864 4.99773 9.2 4.70455 8.13636 4.70455C7.75455 4.70455 7.36364 4.74091 6.96364 4.81364C6.56364 4.88636 6.25 4.97273 6.02273 5.07273L5.39545 4.43182C5.71364 4.28636 6.12045 4.15909 6.61591 4.05C7.11136 3.94091 7.59545 3.88636 8.06818 3.88636C9.36818 3.88636 10.5568 4.25682 11.6341 4.99773C12.7114 5.73864 13.5 6.73182 14 7.97727C13.7636 8.55909 13.4591 9.09091 13.0864 9.57273C12.7136 10.0545 12.2818 10.4773 11.7909 10.8409ZM12.5818 13.9227L10.2909 11.6727C9.97273 11.8 9.61364 11.8977 9.21364 11.9659C8.81364 12.0341 8.40909 12.0682 8 12.0682C6.67273 12.0682 5.46818 11.6977 4.38636 10.9568C3.30455 10.2159 2.50909 9.22273 2 7.97727C2.18182 7.50455 2.43409 7.04318 2.75682 6.59318C3.07955 6.14318 3.47273 5.71364 3.93636 5.30455L2.21818 3.58636L2.79091 3L13.1136 13.3227L12.5818 13.9227ZM4.49545 5.87727C4.15909 6.12273 3.83409 6.44545 3.52045 6.84545C3.20682 7.24545 2.98182 7.62273 2.84545 7.97727C3.30909 8.98636 4.00682 9.78409 4.93864 10.3705C5.87045 10.9568 6.92727 11.25 8.10909 11.25C8.40909 11.25 8.70455 11.2318 8.99545 11.1955C9.28636 11.1591 9.50455 11.1045 9.65 11.0318L8.77727 10.1591C8.67727 10.2045 8.55455 10.2386 8.40909 10.2614C8.26364 10.2841 8.12727 10.2955 8 10.2955C7.36364 10.2955 6.81818 10.0727 6.36364 9.62727C5.90909 9.18182 5.68182 8.63182 5.68182 7.97727C5.68182 7.84091 5.69318 7.70455 5.71591 7.56818C5.73864 7.43182 5.77273 7.30909 5.81818 7.2L4.49545 5.87727Z" fill="white"/>
</svg>
