<svg width="16" height="16" viewBox="0 0 16 16" fill="none" xmlns="http://www.w3.org/2000/svg">
<path fill-rule="evenodd" clip-rule="evenodd" d="M13.7593 1.5H2.21612C1.82053 1.5 1.5 1.82118 1.5 2.21747V13.7825C1.5 14.1787 1.82053 14.5 2.21612 14.5H8.43058V9.46571H6.7396V7.50378H8.43058V6.0569C8.43058 4.37778 9.45416 3.46348 10.9492 3.46348C11.6653 3.46348 12.2809 3.51686 12.4603 3.54073V5.29555L11.4233 5.29603C10.6103 5.29603 10.4528 5.68312 10.4528 6.25115V7.50378H12.392L12.1394 9.46571H10.4528V14.5H13.7593C14.1547 14.5 14.4754 14.1787 14.4754 13.7825V2.21747C14.4754 1.82118 14.1547 1.5 13.7593 1.5Z" fill="white"/>
</svg>
