<svg width="16" height="16" viewBox="0 0 16 16" fill="none" xmlns="http://www.w3.org/2000/svg">
<path fill-rule="evenodd" clip-rule="evenodd" d="M7.61562 1C3.95735 1 1 3.97915 1 7.66477C1 10.6109 2.89488 13.1047 5.52357 13.9874C5.85223 14.0537 5.97261 13.8439 5.97261 13.6675C5.97261 13.513 5.96178 12.9834 5.96178 12.4316C4.12148 12.8289 3.73825 11.6371 3.73825 11.6371C3.4425 10.8647 3.00429 10.6661 3.00429 10.6661C2.40196 10.2579 3.04817 10.2579 3.04817 10.2579C3.71631 10.302 4.0669 10.942 4.0669 10.942C4.65827 11.9571 5.61119 11.6702 5.99455 11.4937C6.04926 11.0633 6.22462 10.7654 6.41082 10.5999C4.94305 10.4454 3.39876 9.87165 3.39876 7.31161C3.39876 6.58334 3.66147 5.98751 4.07774 5.52412C4.01206 5.35864 3.78199 4.67438 4.14355 3.75856C4.14355 3.75856 4.70214 3.58198 5.96165 4.44268C6.50089 4.29679 7.05699 4.22258 7.61562 4.22196C8.17421 4.22196 8.74363 4.29928 9.26946 4.44268C10.5291 3.58198 11.0877 3.75856 11.0877 3.75856C11.4492 4.67438 11.219 5.35864 11.1534 5.52412C11.5806 5.98751 11.8325 6.58334 11.8325 7.31161C11.8325 9.87165 10.2882 10.4343 8.80945 10.5999C9.05049 10.8095 9.25849 11.2067 9.25849 11.8357C9.25849 12.7295 9.24765 13.4468 9.24765 13.6674C9.24765 13.8439 9.36817 14.0537 9.69669 13.9875C12.3254 13.1046 14.2203 10.6109 14.2203 7.66477C14.2311 3.97915 11.2629 1 7.61562 1Z" fill="white"/>
</svg>
