<svg width="16" height="16" viewBox="0 0 16 16" fill="none" xmlns="http://www.w3.org/2000/svg">
<path d="M7.97718 14L7.19492 13.296C6.06845 12.2634 5.14016 11.3742 4.41004 10.6284C3.67992 9.88266 3.09844 9.21512 2.66558 8.62581C2.23272 8.03651 1.93025 7.49935 1.75815 7.01434C1.58605 6.52934 1.5 6.03651 1.5 5.53585C1.5 4.53455 1.83638 3.69492 2.50913 3.01695C3.18188 2.33898 4.01369 2 5.00456 2C5.59909 2 6.14668 2.13299 6.64733 2.39896C7.14798 2.66493 7.59126 3.05345 7.97718 3.56454C8.43611 3.02216 8.90548 2.62581 9.38527 2.37549C9.86506 2.12516 10.3866 2 10.9498 2C11.9511 2 12.7907 2.33898 13.4687 3.01695C14.1467 3.69492 14.4857 4.53455 14.4857 5.53585C14.4857 6.03651 14.3996 6.52673 14.2275 7.00652C14.0554 7.48631 13.7529 8.02086 13.3201 8.61017C12.8872 9.19948 12.3031 9.86962 11.5678 10.6206C10.8325 11.3716 9.90678 12.2634 8.79074 13.296L7.97718 14ZM7.97718 12.3729C9.03064 11.4029 9.89635 10.5737 10.5743 9.88527C11.2523 9.19687 11.7894 8.59713 12.1858 8.08605C12.5821 7.57497 12.8559 7.11864 13.0072 6.71708C13.1584 6.31552 13.234 5.92177 13.234 5.53585C13.234 4.86832 13.0228 4.32073 12.6004 3.89309C12.178 3.46545 11.633 3.25163 10.9654 3.25163C10.4439 3.25163 9.95893 3.41591 9.51043 3.74446C9.06193 4.07301 8.69687 4.53455 8.41525 5.12907H7.55476C7.28357 4.54498 6.92112 4.08605 6.46741 3.75228C6.01369 3.41851 5.52608 3.25163 5.00456 3.25163C4.34746 3.25163 3.80769 3.46545 3.38527 3.89309C2.96284 4.32073 2.75163 4.86832 2.75163 5.53585C2.75163 5.9322 2.82986 6.33377 2.98631 6.74055C3.14276 7.14733 3.41917 7.61147 3.81551 8.13299C4.21186 8.6545 4.74902 9.25424 5.42699 9.9322C6.10495 10.6102 6.95502 11.4237 7.97718 12.3729Z" fill="white"/>
</svg>
