<svg width="16" height="16" viewBox="0 0 16 16" fill="none" xmlns="http://www.w3.org/2000/svg">
<path d="M2.95 14C2.40833 14 1.94792 13.8104 1.56875 13.4312C1.18958 13.0521 1 12.5917 1 12.05V2.95C1 2.40833 1.18958 1.94792 1.56875 1.56875C1.94792 1.18958 2.40833 1 2.95 1H12.05C12.5917 1 13.0521 1.18958 13.4312 1.56875C13.8104 1.94792 14 2.40833 14 2.95V12.05C14 12.5917 13.8104 13.0521 13.4312 13.4312C13.0521 13.8104 12.5917 14 12.05 14H2.95ZM2.95 13.025H12.05C12.3317 13.025 12.5646 12.9302 12.7487 12.7406C12.9329 12.551 13.025 12.3208 13.025 12.05V2.95C13.025 2.66833 12.9329 2.43542 12.7487 2.25125C12.5646 2.06708 12.3317 1.975 12.05 1.975H2.95C2.67917 1.975 2.44896 2.06708 2.25937 2.25125C2.06979 2.43542 1.975 2.66833 1.975 2.95V12.05C1.975 12.3208 2.06979 12.551 2.25937 12.7406C2.44896 12.9302 2.67917 13.025 2.95 13.025ZM3.99 11.2375L6.2 9.0275L7.38625 10.1975L8.8 8.41L11.0588 11.2375H3.99ZM4.9 6.0375C4.58583 6.0375 4.31771 5.92646 4.09562 5.70437C3.87354 5.48229 3.7625 5.21417 3.7625 4.9C3.7625 4.58583 3.87354 4.31771 4.09562 4.09562C4.31771 3.87354 4.58583 3.7625 4.9 3.7625C5.21417 3.7625 5.48229 3.87354 5.70437 4.09562C5.92646 4.31771 6.0375 4.58583 6.0375 4.9C6.0375 5.21417 5.92646 5.48229 5.70437 5.70437C5.48229 5.92646 5.21417 6.0375 4.9 6.0375Z" fill="white"/>
</svg>
