<svg width="30" height="30" viewBox="0 0 30 30" fill="none" xmlns="http://www.w3.org/2000/svg">
<path d="M9.8125 26.5V24H3.875C3.375 24 2.9375 23.8125 2.5625 23.4375C2.1875 23.0625 2 22.625 2 22.125V5.875C2 5.375 2.1875 4.9375 2.5625 4.5625C2.9375 4.1875 3.375 4 3.875 4H15.125V5.875H3.875V22.125H25.125V17.75H27V22.125C27 22.625 26.8125 23.0625 26.4375 23.4375C26.0625 23.8125 25.625 24 25.125 24H19.1875V26.5H9.8125ZM20.75 17.3125L14.9375 11.5L16.25 10.1875L19.8125 13.75V4H21.6875V13.75L25.25 10.1875L26.5625 11.5L20.75 17.3125Z" fill="white"/>
</svg>
