<svg width="30" height="30" viewBox="0 0 30 30" fill="none" xmlns="http://www.w3.org/2000/svg">
<path d="M10.2188 16.375H17.25V14.5H10.2188V16.375ZM10.2188 13.5625H22.5625V11.6875H10.2188V13.5625ZM10.2188 10.75H22.5625V8.875H10.2188V10.75ZM7.625 23.25C7.125 23.25 6.6875 23.0625 6.3125 22.6875C5.9375 22.3125 5.75 21.875 5.75 21.375V3.875C5.75 3.375 5.9375 2.9375 6.3125 2.5625C6.6875 2.1875 7.125 2 7.625 2H25.125C25.625 2 26.0625 2.1875 26.4375 2.5625C26.8125 2.9375 27 3.375 27 3.875V21.375C27 21.875 26.8125 22.3125 26.4375 22.6875C26.0625 23.0625 25.625 23.25 25.125 23.25H7.625ZM7.625 21.375H25.125V3.875H7.625V21.375ZM3.875 27C3.375 27 2.9375 26.8125 2.5625 26.4375C2.1875 26.0625 2 25.625 2 25.125V5.75H3.875V25.125H23.25V27H3.875ZM7.625 3.875V21.375V3.875Z" fill="white"/>
</svg>
