<svg width="16" height="16" viewBox="0 0 16 16" fill="none" xmlns="http://www.w3.org/2000/svg">
<path fill-rule="evenodd" clip-rule="evenodd" d="M12.5778 12.5774H10.6498V9.56036C10.6498 8.84103 10.6376 7.9155 9.64812 7.9155C8.64459 7.9155 8.49148 8.69947 8.49148 9.50908V12.5774H6.56567V6.37356H8.41384V7.22181H8.44056C8.69767 6.73394 9.32673 6.21972 10.2645 6.21972C12.2171 6.21972 12.5778 7.50419 12.5778 9.17506V12.5774ZM4.39178 5.52603C3.77248 5.52603 3.27306 5.02517 3.27306 4.40767C3.27306 3.79053 3.77248 3.28967 4.39178 3.28967C5.00856 3.28967 5.50906 3.79053 5.50906 4.40767C5.50906 5.02517 5.00856 5.52603 4.39178 5.52603ZM3.42617 12.5774H5.35631V6.37356H3.42617V12.5774ZM13.538 1.5H2.45876C1.92973 1.5 1.5 1.91961 1.5 2.43744V13.5618C1.5 14.0797 1.92973 14.5 2.45876 14.5H13.538C14.0681 14.5 14.4996 14.0797 14.4996 13.5618V2.43744C14.4996 1.91961 14.0681 1.5 13.538 1.5Z" fill="white"/>
</svg>
