<svg width="22" height="22" viewBox="0 0 22 22" fill="none" xmlns="http://www.w3.org/2000/svg">
<path d="M4.55 16.625C5.6 15.8917 6.64167 15.3292 7.675 14.9375C8.70833 14.5458 9.81667 14.35 11 14.35C12.1833 14.35 13.2958 14.5458 14.3375 14.9375C15.3792 15.3292 16.425 15.8917 17.475 16.625C18.2083 15.725 18.7292 14.8167 19.0375 13.9C19.3458 12.9833 19.5 12.0167 19.5 11C19.5 8.58333 18.6875 6.5625 17.0625 4.9375C15.4375 3.3125 13.4167 2.5 11 2.5C8.58333 2.5 6.5625 3.3125 4.9375 4.9375C3.3125 6.5625 2.5 8.58333 2.5 11C2.5 12.0167 2.65833 12.9833 2.975 13.9C3.29167 14.8167 3.81667 15.725 4.55 16.625ZM11 11.75C10.0333 11.75 9.22083 11.4208 8.5625 10.7625C7.90417 10.1042 7.575 9.29167 7.575 8.325C7.575 7.35833 7.90417 6.54583 8.5625 5.8875C9.22083 5.22917 10.0333 4.9 11 4.9C11.9667 4.9 12.7792 5.22917 13.4375 5.8875C14.0958 6.54583 14.425 7.35833 14.425 8.325C14.425 9.29167 14.0958 10.1042 13.4375 10.7625C12.7792 11.4208 11.9667 11.75 11 11.75ZM11 21C9.63333 21 8.34167 20.7375 7.125 20.2125C5.90833 19.6875 4.84583 18.9708 3.9375 18.0625C3.02917 17.1542 2.3125 16.0917 1.7875 14.875C1.2625 13.6583 1 12.3667 1 11C1 9.61667 1.2625 8.32083 1.7875 7.1125C2.3125 5.90417 3.02917 4.84583 3.9375 3.9375C4.84583 3.02917 5.90833 2.3125 7.125 1.7875C8.34167 1.2625 9.63333 1 11 1C12.3833 1 13.6792 1.2625 14.8875 1.7875C16.0958 2.3125 17.1542 3.02917 18.0625 3.9375C18.9708 4.84583 19.6875 5.90417 20.2125 7.1125C20.7375 8.32083 21 9.61667 21 11C21 12.3667 20.7375 13.6583 20.2125 14.875C19.6875 16.0917 18.9708 17.1542 18.0625 18.0625C17.1542 18.9708 16.0958 19.6875 14.8875 20.2125C13.6792 20.7375 12.3833 21 11 21ZM11 19.5C11.9167 19.5 12.8125 19.3667 13.6875 19.1C14.5625 18.8333 15.425 18.3667 16.275 17.7C15.425 17.1 14.5583 16.6417 13.675 16.325C12.7917 16.0083 11.9 15.85 11 15.85C10.1 15.85 9.20833 16.0083 8.325 16.325C7.44167 16.6417 6.575 17.1 5.725 17.7C6.575 18.3667 7.4375 18.8333 8.3125 19.1C9.1875 19.3667 10.0833 19.5 11 19.5ZM11 10.25C11.5667 10.25 12.0292 10.0708 12.3875 9.7125C12.7458 9.35417 12.925 8.89167 12.925 8.325C12.925 7.75833 12.7458 7.29583 12.3875 6.9375C12.0292 6.57917 11.5667 6.4 11 6.4C10.4333 6.4 9.97083 6.57917 9.6125 6.9375C9.25417 7.29583 9.075 7.75833 9.075 8.325C9.075 8.89167 9.25417 9.35417 9.6125 9.7125C9.97083 10.0708 10.4333 10.25 11 10.25Z" fill="white"/>
</svg>
