<svg width="30" height="30" viewBox="0 0 30 30" fill="none" xmlns="http://www.w3.org/2000/svg">
<path d="M13.8421 26.0395V22.9145L21.0789 15.6776L24.2039 18.8026L16.9671 26.0395H13.8421ZM2 19.4934V16.3684H13.3816V19.4934H2ZM25.6184 17.3882L22.4934 14.2632L23.4474 13.3092C23.7325 13.0241 24.0943 12.8816 24.5329 12.8816C24.9715 12.8816 25.3333 13.0241 25.6184 13.3092L26.5724 14.2632C26.8575 14.5482 27 14.9101 27 15.3487C27 15.7873 26.8575 16.1491 26.5724 16.4342L25.6184 17.3882ZM2 13.2763V10.1842H18.5789V13.2763H2ZM2 7.09211V4H18.5789V7.09211H2Z" fill="white"/>
</svg>
