<svg width="30" height="30" viewBox="0 0 30 30" fill="none" xmlns="http://www.w3.org/2000/svg">
<path d="M5.04545 27V25.2955H24.1364V27H5.04545ZM5.04545 3.70455V2H24.1364V3.70455H5.04545ZM14.5909 15.5227C15.5379 15.5227 16.3333 15.2008 16.9773 14.5568C17.6212 13.9129 17.9432 13.1174 17.9432 12.1705C17.9432 11.2235 17.6212 10.428 16.9773 9.78409C16.3333 9.14015 15.5379 8.81818 14.5909 8.81818C13.6439 8.81818 12.8485 9.14015 12.2045 9.78409C11.5606 10.428 11.2386 11.2235 11.2386 12.1705C11.2386 13.1174 11.5606 13.9129 12.2045 14.5568C12.8485 15.2008 13.6439 15.5227 14.5909 15.5227ZM4.70455 23.5909C4.25 23.5909 3.85227 23.4205 3.51136 23.0795C3.17045 22.7386 3 22.3409 3 21.8864V7.11364C3 6.62121 3.17045 6.21402 3.51136 5.89205C3.85227 5.57008 4.25 5.40909 4.70455 5.40909H24.4773C24.9318 5.40909 25.3295 5.57955 25.6705 5.92045C26.0114 6.26136 26.1818 6.65909 26.1818 7.11364V21.8864C26.1818 22.3409 26.0114 22.7386 25.6705 23.0795C25.3295 23.4205 24.9318 23.5909 24.4773 23.5909H4.70455ZM7.20455 21.8864C8.17045 20.6932 9.31629 19.7983 10.642 19.2017C11.9678 18.6051 13.2841 18.3068 14.5909 18.3068C15.8788 18.3068 17.1998 18.6051 18.554 19.2017C19.9081 19.7983 21.0492 20.6932 21.9773 21.8864H24.4773V7.11364H4.70455V21.8864H7.20455ZM9.875 21.8864H19.3636C18.7765 21.3182 18.09 20.8636 17.304 20.5227C16.518 20.1818 15.6136 20.0114 14.5909 20.0114C13.5682 20.0114 12.6733 20.1818 11.9062 20.5227C11.1392 20.8636 10.4621 21.3182 9.875 21.8864ZM14.5909 13.8182C14.1364 13.8182 13.7528 13.6572 13.4403 13.3352C13.1278 13.0133 12.9716 12.625 12.9716 12.1705C12.9716 11.7159 13.1278 11.3277 13.4403 11.0057C13.7528 10.6837 14.1364 10.5227 14.5909 10.5227C15.0455 10.5227 15.429 10.6837 15.7415 11.0057C16.054 11.3277 16.2102 11.7159 16.2102 12.1705C16.2102 12.625 16.054 13.0133 15.7415 13.3352C15.429 13.6572 15.0455 13.8182 14.5909 13.8182Z" fill="white"/>
</svg>
