<svg width="22" height="23" viewBox="0 0 22 23" fill="none" xmlns="http://www.w3.org/2000/svg">
<path fill-rule="evenodd" clip-rule="evenodd" d="M9.43654 2.67119C8.96769 2.67119 8.58762 3.05126 8.58762 3.52011V14.721L6.5295 12.6628C5.82368 11.957 4.71464 11.868 3.90706 12.4411L9.2871 17.8407C10.3271 18.8845 11.7399 19.4712 13.2134 19.4712C16.2745 19.4712 18.756 16.9897 18.756 13.9286V6.27862C18.756 5.84056 18.4009 5.48543 17.9629 5.48543C17.5248 5.48543 17.1697 5.84056 17.1697 6.27862V11.7399C17.1697 12.0713 16.901 12.3399 16.5697 12.3399C16.2383 12.3399 15.9697 12.0713 15.9697 11.7399V11.5052C15.9695 11.4999 15.9695 11.4945 15.9695 11.4891V9.03712C15.9695 8.58366 15.6019 8.21606 15.1484 8.21606C14.7026 8.21606 14.3396 8.57151 14.3277 9.01425V11.889C14.3277 12.2204 14.059 12.489 13.7277 12.489C13.3963 12.489 13.1277 12.2204 13.1277 11.889V11.5085C13.1274 11.5021 13.1273 11.4956 13.1273 11.4891V9.03712C13.1273 9.02526 13.1274 9.01341 13.1277 9.00159V7.47677C13.1277 7.02331 12.7601 6.65571 12.3066 6.65571C11.8531 6.65571 11.4855 7.02331 11.4855 7.47677V10.3189C11.4855 10.3225 11.4855 10.3262 11.4855 10.3298V10.5975C11.4855 10.9289 11.2168 11.1975 10.8855 11.1975C10.5541 11.1975 10.2855 10.9289 10.2855 10.5975V3.52011C10.2855 3.05126 9.90538 2.67119 9.43654 2.67119ZM11.4855 5.6295V3.52011C11.4855 2.38852 10.5681 1.47119 9.43654 1.47119C8.30495 1.47119 7.38762 2.38852 7.38762 3.52011V11.8239L7.37803 11.8143C6.22623 10.6625 4.39837 10.5449 3.10842 11.5395C2.57026 11.9545 2.51849 12.7476 2.99815 13.229L8.43704 18.6877C9.70222 19.9574 11.4209 20.6712 13.2134 20.6712C16.9373 20.6712 19.956 17.6524 19.956 13.9286V6.27862C19.956 5.17781 19.0637 4.28543 17.9629 4.28543C16.862 4.28543 15.9697 5.17781 15.9697 6.27862V7.1899C15.7187 7.07817 15.4408 7.01606 15.1484 7.01606C14.8488 7.01606 14.5644 7.08126 14.3086 7.19825C14.1729 6.21385 13.3283 5.45571 12.3066 5.45571C12.0142 5.45571 11.7364 5.5178 11.4855 5.6295Z" fill="white"/>
</svg>
