<svg width="22" height="22" viewBox="0 0 22 22" fill="none" xmlns="http://www.w3.org/2000/svg">
<path d="M19.7778 21L12.4722 13.6944C11.9167 14.1759 11.2685 14.5509 10.5278 14.8194C9.78704 15.088 9 15.2222 8.16667 15.2222C6.16667 15.2222 4.47222 14.5278 3.08333 13.1389C1.69444 11.75 1 10.0741 1 8.11111C1 6.14815 1.69444 4.47222 3.08333 3.08333C4.47222 1.69444 6.15741 1 8.13889 1C10.1019 1 11.7731 1.69444 13.1528 3.08333C14.5324 4.47222 15.2222 6.14815 15.2222 8.11111C15.2222 8.90741 15.0926 9.67593 14.8333 10.4167C14.5741 11.1574 14.1852 11.8519 13.6667 12.5L21 19.7778L19.7778 21ZM8.13889 13.5556C9.63889 13.5556 10.9167 13.0231 11.9722 11.9583C13.0278 10.8935 13.5556 9.61111 13.5556 8.11111C13.5556 6.61111 13.0278 5.3287 11.9722 4.26389C10.9167 3.19907 9.63889 2.66667 8.13889 2.66667C6.62037 2.66667 5.3287 3.19907 4.26389 4.26389C3.19907 5.3287 2.66667 6.61111 2.66667 8.11111C2.66667 9.61111 3.19907 10.8935 4.26389 11.9583C5.3287 13.0231 6.62037 13.5556 8.13889 13.5556Z" fill="white"/>
</svg>
