<svg width="16" height="16" viewBox="0 0 16 16" fill="none" xmlns="http://www.w3.org/2000/svg">
<path d="M11.6808 14C11.1072 14 10.6129 13.7926 10.198 13.3777C9.7831 12.9628 9.57565 12.4685 9.57565 11.8948C9.57565 11.8231 9.58333 11.7335 9.5987 11.6259C9.61407 11.5183 9.63711 11.4133 9.66785 11.3109L5.58038 8.92908C5.39598 9.13396 5.17317 9.29787 4.91194 9.4208C4.65071 9.54373 4.3818 9.6052 4.1052 9.6052C3.52128 9.6052 3.02443 9.39775 2.61466 8.98286C2.20489 8.56797 2 8.07368 2 7.5C2 6.91608 2.20489 6.41923 2.61466 6.00946C3.02443 5.59968 3.52128 5.3948 4.1052 5.3948C4.3818 5.3948 4.64559 5.44858 4.89657 5.55615C5.14756 5.66371 5.37549 5.81994 5.58038 6.02482L9.66785 3.67376C9.63711 3.5918 9.61407 3.49704 9.5987 3.38948C9.58333 3.28191 9.57565 3.18716 9.57565 3.1052C9.57565 2.53152 9.7831 2.03723 10.198 1.62234C10.6129 1.20745 11.1072 1 11.6808 1C12.2648 1 12.7616 1.20745 13.1714 1.62234C13.5812 2.03723 13.7861 2.53152 13.7861 3.1052C13.7861 3.67888 13.5812 4.17317 13.1714 4.58806C12.7616 5.00295 12.2648 5.2104 11.6808 5.2104C11.394 5.2104 11.1251 5.16942 10.8741 5.08747C10.6231 5.00552 10.4106 4.8621 10.2364 4.65721L6.13357 6.88534C6.1643 6.97754 6.18479 7.08511 6.19503 7.20804C6.20528 7.33097 6.2104 7.42829 6.2104 7.5C6.2104 7.57171 6.20528 7.65366 6.19503 7.74586C6.18479 7.83806 6.1643 7.93538 6.13357 8.03782L10.2364 10.3274C10.4106 10.1533 10.618 10.0201 10.8587 9.92789C11.0995 9.8357 11.3735 9.7896 11.6808 9.7896C12.2648 9.7896 12.7616 9.99704 13.1714 10.4119C13.5812 10.8268 13.7861 11.3211 13.7861 11.8948C13.7861 12.4685 13.5786 12.9628 13.1637 13.3777C12.7488 13.7926 12.2545 14 11.6808 14Z" fill="white"/>
</svg>
