<svg width="30" height="30" viewBox="0 0 30 30" fill="none" xmlns="http://www.w3.org/2000/svg">
<path d="M3.70455 25.5909C3.23106 25.5909 2.8286 25.4252 2.49716 25.0938C2.16572 24.7623 2 24.3598 2 23.8864V7.69318H3.70455V23.8864H24.4432V25.5909H3.70455ZM7.11364 22.1818C6.64015 22.1818 6.23769 22.0161 5.90625 21.6847C5.57481 21.3532 5.40909 20.9508 5.40909 20.4773V5.70455C5.40909 5.23106 5.57481 4.8286 5.90625 4.49716C6.23769 4.16572 6.64015 4 7.11364 4H14.5L16.2045 5.70455H25.2955C25.7689 5.70455 26.1714 5.87027 26.5028 6.2017C26.8343 6.53314 27 6.93561 27 7.40909V20.4773C27 20.9508 26.8343 21.3532 26.5028 21.6847C26.1714 22.0161 25.7689 22.1818 25.2955 22.1818H7.11364ZM7.11364 20.4773H25.2955V7.40909H15.4943L13.7898 5.70455H7.11364V20.4773ZM7.11364 20.4773V5.70455V20.4773Z" fill="white"/>
</svg>
