<svg width="16" height="16" viewBox="0 0 16 16" fill="none" xmlns="http://www.w3.org/2000/svg">
<path d="M5.47581 2.56602V1.3042H9.53265V2.56602H5.47581ZM6.86565 9.57734H8.14281V5.72825H6.86565V9.57734ZM7.50423 14.3042C6.73763 14.3042 6.02163 14.158 5.35622 13.8657C4.69081 13.5729 4.11049 13.1788 3.61527 12.6836C3.12005 12.1884 2.72882 11.6109 2.44161 10.9511C2.15387 10.2908 2.01001 9.57734 2.01001 8.81074C2.01001 8.04414 2.15387 7.32814 2.44161 6.66273C2.72882 5.99732 3.12005 5.41701 3.61527 4.92178C4.11049 4.42656 4.69081 4.03534 5.35622 3.74812C6.02163 3.46039 6.73763 3.31652 7.50423 3.31652C8.1216 3.31652 8.72057 3.42027 9.30114 3.62776C9.8812 3.83577 10.4214 4.12605 10.9217 4.49862L11.8003 3.6362L12.6788 4.51472L11.8164 5.39324C12.1889 5.88284 12.479 6.41768 12.6864 6.99774C12.8945 7.57831 12.9985 8.18264 12.9985 8.81074C12.9985 9.57734 12.8546 10.2908 12.5669 10.9511C12.2796 11.6109 11.8884 12.1884 11.3932 12.6836C10.898 13.1788 10.3177 13.5729 9.65224 13.8657C8.98684 14.158 8.27083 14.3042 7.50423 14.3042ZM7.50423 12.9787C8.66486 12.9787 9.64969 12.5742 10.4587 11.7652C11.2682 10.9562 11.673 9.97138 11.673 8.81074C11.673 7.65011 11.2682 6.66529 10.4587 5.85627C9.64969 5.04674 8.66486 4.64197 7.50423 4.64197C6.3436 4.64197 5.35877 5.04674 4.54976 5.85627C3.74023 6.66529 3.33546 7.65011 3.33546 8.81074C3.33546 9.97138 3.74023 10.9562 4.54976 11.7652C5.35877 12.5742 6.3436 12.9787 7.50423 12.9787Z" fill="white"/>
</svg>
