<svg width="30" height="30" viewBox="0 0 30 30" fill="none" xmlns="http://www.w3.org/2000/svg">
<path d="M15.2538 27C14.6859 27 14.1571 26.8776 13.6674 26.6328C13.1778 26.388 12.8547 26.0208 12.698 25.5311H12.2867C11.6796 25.4332 11.1753 25.1492 10.7738 24.6792C10.3723 24.2092 10.1716 23.6706 10.1716 23.0635V19.2444C8.85938 18.3239 7.83608 17.1831 7.10165 15.822C6.36722 14.4608 6 12.9479 6 11.2832C6 8.71759 6.9009 6.52899 8.7027 4.71739C10.5045 2.9058 12.6882 2 15.2538 2C17.8194 2 20.008 2.9058 21.8196 4.71739C23.6312 6.52899 24.537 8.71759 24.537 11.2832C24.537 12.9479 24.1649 14.4608 23.4207 15.822C22.6765 17.1831 21.6581 18.3239 20.3655 19.2444V23.0635C20.3655 23.6706 20.1598 24.2092 19.7485 24.6792C19.3373 25.1492 18.8378 25.4332 18.2503 25.5311H17.839C17.6628 26.0208 17.3249 26.388 16.8255 26.6328C16.3261 26.8776 15.8022 27 15.2538 27ZM12.933 23.0635H17.5746V21.7709H12.933V23.0635ZM12.933 20.5958H17.5746V19.4207H12.933V20.5958ZM12.4042 17.3937H14.4019V13.6921L11.6404 10.9307L12.7861 9.78496L15.2538 12.2526L17.7215 9.78496L18.8672 10.9307L16.1058 13.6921V17.3937H18.1034C19.2197 16.8453 20.106 16.0129 20.762 14.8966C21.4181 13.7803 21.7462 12.5758 21.7462 11.2832C21.7462 9.46181 21.1195 7.9244 19.866 6.67098C18.6126 5.41755 17.0752 4.79083 15.2538 4.79083C13.4324 4.79083 11.895 5.41755 10.6416 6.67098C9.38817 7.9244 8.76146 9.46181 8.76146 11.2832C8.76146 12.5758 9.0895 13.7803 9.74559 14.8966C10.4017 16.0129 11.2879 16.8453 12.4042 17.3937Z" fill="white"/>
</svg>
