<svg width="30" height="30" viewBox="0 0 30 30" fill="none" xmlns="http://www.w3.org/2000/svg">
<path d="M14.0909 23.892L7.84091 20.2273C7.57576 20.0758 7.37216 19.8674 7.23011 19.6023C7.08807 19.3371 7.01705 19.053 7.01705 18.75V11.4489C7.01705 11.1458 7.08807 10.8617 7.23011 10.5966C7.37216 10.3314 7.57576 10.1231 7.84091 9.97159L14.1193 6.25C14.3845 6.09848 14.678 6.02273 15 6.02273C15.322 6.02273 15.6155 6.09848 15.8807 6.25L22.1591 9.97159C22.4242 10.1231 22.6278 10.3314 22.7699 10.5966C22.9119 10.8617 22.983 11.1458 22.983 11.4489V18.75C22.983 19.053 22.9072 19.3371 22.7557 19.6023C22.6042 19.8674 22.3958 20.0758 22.1307 20.2273L15.7955 23.892C15.5303 24.0436 15.2462 24.1193 14.9432 24.1193C14.6402 24.1193 14.3561 24.0436 14.0909 23.892ZM14.1477 21.9318V15.5682L8.75 12.4716V18.6932L14.1477 21.9318ZM15.8523 21.9318L21.2784 18.6932V12.4716L15.8523 15.5682V21.9318ZM2.5 7.86932V5.68182C2.5 4.79167 2.80777 4.03883 3.4233 3.4233C4.03883 2.80777 4.79167 2.5 5.68182 2.5H7.86932V4.20455H5.68182C5.26515 4.20455 4.91477 4.34659 4.63068 4.63068C4.34659 4.91477 4.20455 5.26515 4.20455 5.68182V7.86932H2.5ZM5.68182 27.5C4.79167 27.5 4.03883 27.1922 3.4233 26.5767C2.80777 25.9612 2.5 25.2083 2.5 24.3182V22.1307H4.20455V24.3182C4.20455 24.7348 4.34659 25.0852 4.63068 25.3693C4.91477 25.6534 5.26515 25.7955 5.68182 25.7955H7.86932V27.5H5.68182ZM22.1307 27.3864V25.6818H24.3182C24.7348 25.6818 25.0852 25.5398 25.3693 25.2557C25.6534 24.9716 25.7955 24.6212 25.7955 24.2045V22.017H27.5V24.2045C27.5 25.0947 27.1922 25.8475 26.5767 26.4631C25.9612 27.0786 25.2083 27.3864 24.3182 27.3864H22.1307ZM25.7955 7.86932V5.68182C25.7955 5.26515 25.6534 4.91477 25.3693 4.63068C25.0852 4.34659 24.7348 4.20455 24.3182 4.20455H22.1307V2.5H24.3182C25.2083 2.5 25.9612 2.80777 26.5767 3.4233C27.1922 4.03883 27.5 4.79167 27.5 5.68182V7.86932H25.7955ZM15 14.0341L20.3977 10.9091L15 7.8125L9.60227 10.9091L15 14.0341Z" fill="white"/>
</svg>
