<svg width="16" height="16" viewBox="0 0 16 16" fill="none" xmlns="http://www.w3.org/2000/svg">
<path d="M7.87563 5.66016L7.90186 6.09268L7.46468 6.03972C5.87337 5.8367 4.48315 5.14818 3.30278 3.99183L2.72571 3.41807L2.57707 3.84177C2.2623 4.78627 2.46341 5.78374 3.11917 6.4546C3.46891 6.82533 3.39022 6.8783 2.78691 6.65762C2.57707 6.587 2.39346 6.53404 2.37597 6.56052C2.31477 6.62231 2.52461 7.42558 2.69074 7.74335C2.91807 8.18471 3.38147 8.61724 3.88859 8.87322L4.31703 9.07625L3.8099 9.08507C3.32027 9.08507 3.30278 9.0939 3.35524 9.27927C3.53011 9.85303 4.22085 10.4621 4.99027 10.7269L5.53237 10.9123L5.06022 11.1948C4.36074 11.6008 3.53885 11.8303 2.71697 11.848C2.32351 11.8568 2 11.8921 2 11.9186C2 12.0068 3.06671 12.5012 3.68749 12.6954C5.54986 13.2691 7.76196 13.022 9.42322 12.0422C10.6036 11.3448 11.784 9.95896 12.3348 8.61724C12.6321 7.90224 12.9294 6.59583 12.9294 5.96911C12.9294 5.56306 12.9556 5.5101 13.4452 5.02461C13.7338 4.74214 14.0048 4.43319 14.0573 4.34492C14.1447 4.1772 14.136 4.1772 13.69 4.32726C12.9469 4.59208 12.8419 4.55677 13.2092 4.15955C13.4802 3.87708 13.8037 3.36511 13.8037 3.21505C13.8037 3.18857 13.6726 3.2327 13.5239 3.31215C13.3665 3.40042 13.0168 3.53282 12.7545 3.61227L12.2823 3.76233L11.8539 3.47103C11.6178 3.31215 11.2856 3.1356 11.1107 3.08264C10.6648 2.95906 9.98281 2.97672 9.58061 3.11795C8.48767 3.51517 7.79694 4.53911 7.87563 5.66016Z" fill="white"/>
</svg>
