<svg width="30" height="30" viewBox="0 0 30 30" fill="none" xmlns="http://www.w3.org/2000/svg">
<path d="M3.875 25C3.375 25 2.9375 24.8125 2.5625 24.4375C2.1875 24.0625 2 23.625 2 23.125V6.875C2 6.375 2.1875 5.9375 2.5625 5.5625C2.9375 5.1875 3.375 5 3.875 5H20.125C20.625 5 21.0625 5.1875 21.4375 5.5625C21.8125 5.9375 22 6.375 22 6.875V13.5938L27 8.59375V21.4062L22 16.4062V23.125C22 23.625 21.8125 24.0625 21.4375 24.4375C21.0625 24.8125 20.625 25 20.125 25H3.875ZM3.875 23.125H20.125V6.875H3.875V23.125ZM3.875 23.125V6.875V23.125Z" fill="white"/>
</svg>
