<svg width="16" height="16" viewBox="0 0 16 16" fill="none" xmlns="http://www.w3.org/2000/svg">
<path d="M7.99229 14.5C7.08758 14.5 6.24199 14.3355 5.45552 14.0065C4.66904 13.6775 3.97766 13.2123 3.38138 12.6109C2.78509 12.0095 2.32246 11.313 1.99348 10.5214C1.66449 9.72974 1.5 8.88157 1.5 7.97687C1.5 7.06188 1.66449 6.21115 1.99348 5.42467C2.32246 4.6382 2.78509 3.95453 3.38138 3.37367C3.97766 2.7928 4.66904 2.33531 5.45552 2.00119C6.24199 1.66706 7.08758 1.5 7.99229 1.5C8.90728 1.5 9.75544 1.66706 10.5368 2.00119C11.3181 2.33531 12.0069 2.7928 12.6032 3.37367C13.1995 3.95453 13.6647 4.6382 13.9988 5.42467C14.3329 6.21115 14.5 7.06188 14.5 7.97687C14.5 8.88157 14.3329 9.72974 13.9988 10.5214C13.6647 11.313 13.1995 12.0095 12.6032 12.6109C12.0069 13.2123 11.3181 13.6775 10.5368 14.0065C9.75544 14.3355 8.90728 14.5 7.99229 14.5ZM7.97687 13.1429C8.31613 12.7934 8.60142 12.3847 8.83274 11.917C9.06406 11.4492 9.26196 10.8812 9.42645 10.2129H6.57355C6.7072 10.8401 6.89225 11.3952 7.12871 11.8784C7.36516 12.3616 7.64788 12.7831 7.97687 13.1429ZM6.72776 12.9579C6.47074 12.5878 6.25484 12.1791 6.08007 11.7319C5.9053 11.2847 5.75623 10.7784 5.63286 10.2129H3.38138C3.75148 10.9223 4.18584 11.4852 4.68446 11.9015C5.18308 12.3179 5.86418 12.67 6.72776 12.9579ZM9.2414 12.9425C9.97133 12.7369 10.6216 12.3924 11.1922 11.9093C11.7628 11.4261 12.2331 10.8606 12.6032 10.2129H10.3826C10.2489 10.7681 10.0896 11.2693 9.90451 11.7165C9.71945 12.1637 9.49842 12.5724 9.2414 12.9425ZM3.08838 9.34935H5.47865C5.43753 9.07177 5.41439 8.82503 5.40925 8.60914C5.40411 8.39324 5.40154 8.18248 5.40154 7.97687C5.40154 7.71985 5.40668 7.49624 5.41696 7.30605C5.42724 7.11586 5.45295 6.89739 5.49407 6.65065H3.08838C3.02669 6.89739 2.98043 7.11329 2.94958 7.29834C2.91874 7.48339 2.90332 7.70957 2.90332 7.97687C2.90332 8.23389 2.91874 8.4652 2.94958 8.67082C2.98043 8.87643 3.02669 9.10261 3.08838 9.34935ZM6.40392 9.34935H9.59609C9.62693 9.03065 9.64492 8.77363 9.65006 8.57829C9.6552 8.38296 9.65777 8.18248 9.65777 7.97687C9.65777 7.77125 9.6552 7.57849 9.65006 7.39858C9.64492 7.21866 9.62693 6.96936 9.59609 6.65065H6.40392C6.36279 6.96936 6.33709 7.21866 6.32681 7.39858C6.31653 7.57849 6.31139 7.77125 6.31139 7.97687C6.31139 8.18248 6.31653 8.38296 6.32681 8.57829C6.33709 8.77363 6.36279 9.03065 6.40392 9.34935ZM10.5059 9.34935H12.8962C12.9373 9.10261 12.9759 8.87643 13.0119 8.67082C13.0478 8.4652 13.0658 8.23389 13.0658 7.97687C13.0658 7.70957 13.0478 7.48339 13.0119 7.29834C12.9759 7.11329 12.9373 6.89739 12.8962 6.65065H10.5214C10.5316 7.03104 10.5419 7.30605 10.5522 7.47568C10.5625 7.64531 10.5676 7.81238 10.5676 7.97687C10.5676 8.19276 10.5599 8.39838 10.5445 8.59371C10.5291 8.78905 10.5162 9.04093 10.5059 9.34935ZM10.3671 5.77165H12.6032C12.2537 5.09312 11.7936 4.51226 11.223 4.02906C10.6524 3.54587 9.98675 3.21688 9.22598 3.04211C9.483 3.4225 9.70403 3.82859 9.88909 4.26038C10.0741 4.69217 10.2335 5.19593 10.3671 5.77165ZM6.57355 5.77165H9.44187C9.34935 5.25761 9.17201 4.741 8.90985 4.22183C8.64769 3.70265 8.33669 3.26315 7.97687 2.90332C7.67873 3.16034 7.41914 3.51246 7.1981 3.95967C6.97707 4.40688 6.76888 5.01087 6.57355 5.77165ZM3.38138 5.77165H5.64828C5.76137 5.22677 5.90016 4.741 6.06465 4.31435C6.22914 3.8877 6.44504 3.46876 6.71234 3.05753C5.94128 3.23231 5.27817 3.55101 4.72301 4.01364C4.16785 4.47628 3.72064 5.06228 3.38138 5.77165Z" fill="white"/>
</svg>
