<svg width="22" height="22" viewBox="0 0 22 22" fill="none" xmlns="http://www.w3.org/2000/svg">
<path fill-rule="evenodd" clip-rule="evenodd" d="M8.8 15.0001V8.40018L14.5156 11.7002L8.8 15.0001ZM21.5404 6.40491C21.2872 5.45834 20.5418 4.71278 19.5953 4.45979C17.8796 4 10.9999 4 10.9999 4C10.9999 4 4.12039 4 2.40472 4.45979C1.45816 4.71278 0.712779 5.45834 0.459793 6.40491C-5.09954e-08 8.12057 0 11.7 0 11.7C0 11.7 -5.09954e-08 15.2797 0.459793 16.9954C0.712779 17.9419 1.45816 18.6873 2.40472 18.9403C4.12039 19.4001 10.9999 19.4001 10.9999 19.4001C10.9999 19.4001 17.8796 19.4001 19.5953 18.9403C20.5418 18.6873 21.2872 17.9419 21.5404 16.9954C22 15.2797 22 11.7 22 11.7C22 11.7 22 8.12057 21.5404 6.40491Z" fill="white"/>
</svg>
