<svg width="30" height="30" viewBox="0 0 30 30" fill="none" xmlns="http://www.w3.org/2000/svg">
<path d="M14.9853 25.1076C16.5623 25.1076 17.9028 24.5557 19.0067 23.4517C20.1106 22.3478 20.6625 21.0074 20.6625 19.4304C20.6625 17.8533 20.1106 16.5129 19.0067 15.409C17.9028 14.3051 16.5623 13.7531 14.9853 13.7531C13.4083 13.7531 12.0678 14.3051 10.9639 15.409C9.85998 16.5129 9.30803 17.8533 9.30803 19.4304C9.30803 21.0074 9.85998 22.3478 10.9639 23.4517C12.0678 24.5557 13.4083 25.1076 14.9853 25.1076ZM11.3193 12.8288C11.7318 12.5813 12.1705 12.3832 12.6355 12.2344C13.1005 12.0856 13.5749 11.982 14.0585 11.9238L11.0306 5.89235H7.8766L11.3193 12.8288ZM18.6512 12.8288L22.1255 5.89235H18.9399L16.2226 11.3027L16.5914 12.0403C16.9585 12.1244 17.3132 12.2279 17.6553 12.3508C17.9974 12.4738 18.3294 12.6331 18.6512 12.8288ZM8.44193 23.6786C8.27048 23.3034 8.14755 22.897 8.07316 22.4595C7.99877 22.022 7.98584 21.5663 8.03437 21.0924C7.84027 20.4001 7.75008 19.6957 7.76381 18.9792C7.77755 18.2627 7.89439 17.5591 8.11435 16.8684C8.11435 16.553 8.16895 16.2538 8.27814 15.9707C8.38733 15.6876 8.53898 15.4329 8.73308 15.2064C8.14111 15.3794 7.64619 15.6936 7.24832 16.1489C6.85043 16.6042 6.62722 17.1359 6.57869 17.7441C6.1096 18.3522 5.88596 19.0497 5.90776 19.8366C5.92955 20.6235 6.21216 21.342 6.7556 21.9923C6.7556 22.4614 6.91938 22.8597 7.24693 23.1873C7.57449 23.5148 7.97282 23.6786 8.44193 23.6786ZM21.5286 23.6786C22.5412 23.4975 23.3859 23.0134 24.0628 22.2265C24.7397 21.4396 25.0782 20.5076 25.0782 19.4304C25.0782 18.3531 24.7397 17.4211 24.0628 16.6342C23.3859 15.8473 22.5412 15.3633 21.5286 15.1821C21.4801 15.1821 21.4316 15.1841 21.3831 15.1882C21.3345 15.1922 21.286 15.1983 21.2375 15.2064C21.6515 15.8081 21.9746 16.4672 22.2067 17.1837C22.4389 17.9002 22.5549 18.6491 22.5549 19.4304C22.5549 20.2116 22.4389 20.9605 22.2067 21.677C21.9746 22.3935 21.6515 23.0526 21.2375 23.6543C21.286 23.6624 21.3345 23.6685 21.3831 23.6725C21.4316 23.6766 21.4801 23.6786 21.5286 23.6786ZM14.9853 27C14.1604 27 13.3763 26.8771 12.6331 26.6312C11.8899 26.3854 11.2085 26.04 10.5891 25.5952C10.3836 25.6535 10.1721 25.6919 9.9546 25.7105C9.73706 25.7291 9.51102 25.7384 9.27649 25.7384C7.54097 25.7384 6.06102 25.1262 4.83662 23.9018C3.61221 22.6774 3 21.1974 3 19.4619C3 17.7782 3.57339 16.337 4.72018 15.1385C5.86694 13.94 7.26926 13.2954 8.92715 13.2048C9.01611 13.2048 9.10103 13.2109 9.1819 13.223C9.26279 13.2352 9.34367 13.2493 9.42454 13.2655L4.79543 4H12.2194L14.9853 9.53172L17.7511 4H25.1751L20.5897 13.1903C20.6625 13.1741 20.7373 13.162 20.8141 13.1539C20.891 13.1458 20.9698 13.1418 21.0507 13.1418C22.7167 13.2453 24.1198 13.8963 25.2601 15.0948C26.4004 16.2933 26.9706 17.7385 26.9706 19.4304C26.9706 21.1869 26.3584 22.6774 25.1339 23.9018C23.9095 25.1262 22.4191 25.7384 20.6625 25.7384C20.4409 25.7384 20.2202 25.7291 20.0002 25.7105C19.7802 25.6919 19.5675 25.6535 19.3621 25.5952C18.7426 26.0319 18.0645 26.3752 17.3277 26.6251C16.591 26.875 15.8102 27 14.9853 27ZM12.8333 22.6086L13.6436 19.9568L11.4916 18.4186H14.1434L14.9853 15.6213L15.8272 18.4186H18.479L16.3269 19.9568L17.1373 22.6086L14.9853 20.9758L12.8333 22.6086Z" fill="white"/>
</svg>
