<svg width="30" height="30" viewBox="0 0 30 30" fill="none" xmlns="http://www.w3.org/2000/svg">
<path d="M15.2426 25.0785C15.3733 25.0785 15.5107 25.049 15.6549 24.99C15.7991 24.9311 15.9144 24.8558 16.0008 24.7642L25.6507 15.1022C25.9273 14.8255 26.1389 14.5262 26.2853 14.2041C26.4318 13.8821 26.505 13.5448 26.505 13.1922C26.505 12.8311 26.4318 12.4782 26.2853 12.1335C26.1389 11.7887 25.9273 11.48 25.6507 11.2074L20.7461 6.30279C20.4735 6.02615 20.1763 5.82032 19.8544 5.6853C19.5325 5.5503 19.191 5.4828 18.8299 5.4828C18.4774 5.4828 18.1381 5.5503 17.8123 5.6853C17.4864 5.82032 17.189 6.02615 16.92 6.30279L16.1373 7.08543L18.4394 9.4058C18.685 9.65547 18.8862 9.94684 19.0431 10.2799C19.2 10.613 19.2784 10.9657 19.2784 11.3379C19.2784 12.0264 19.0305 12.6153 18.5347 13.1045C18.0389 13.5936 17.4493 13.8382 16.7659 13.8382C16.3641 13.8382 16.0083 13.777 15.6984 13.6544C15.3884 13.5319 15.1082 13.3468 14.8576 13.0992L12.6294 10.8726L7.36924 16.1327C7.26296 16.239 7.184 16.3586 7.13238 16.4917C7.08078 16.6248 7.05498 16.7603 7.05498 16.8982C7.05498 17.1639 7.14244 17.3839 7.31736 17.5583C7.4923 17.7327 7.71029 17.82 7.97134 17.82C8.11457 17.82 8.2542 17.7872 8.39023 17.7216C8.52626 17.656 8.6375 17.5799 8.72394 17.4935L12.6645 13.553L13.717 14.6056L9.79485 18.5263C9.68857 18.6376 9.60963 18.7604 9.55803 18.8947C9.5064 19.0289 9.48059 19.1655 9.48059 19.3043C9.48059 19.554 9.572 19.7702 9.75481 19.9531C9.93762 20.1359 10.1539 20.2273 10.4036 20.2273C10.5424 20.2273 10.6798 20.1978 10.8158 20.1388C10.9519 20.0798 11.0631 20.0045 11.1496 19.913L15.2274 15.8413L16.28 16.8939L12.2205 20.9519C12.13 21.0434 12.0549 21.1602 11.9955 21.3021C11.936 21.4441 11.9062 21.5867 11.9062 21.7299C11.9062 21.9796 11.9976 22.1959 12.1804 22.3787C12.3632 22.5615 12.5795 22.6529 12.8292 22.6529C12.968 22.6529 13.1005 22.6271 13.2266 22.5755C13.3527 22.5239 13.4689 22.4449 13.5752 22.3386L17.653 18.2669L18.7056 19.3195L14.6278 23.3973C14.5215 23.5036 14.4426 23.6277 14.391 23.7696C14.3393 23.9115 14.3135 24.0439 14.3135 24.167C14.3135 24.4406 14.4025 24.6609 14.5805 24.828C14.7585 24.995 14.9792 25.0785 15.2426 25.0785ZM15.2378 26.5735C14.6018 26.5735 14.0463 26.3414 13.5714 25.8771C13.0964 25.4128 12.8475 24.8336 12.8246 24.1394C12.1503 24.1003 11.587 23.8642 11.1347 23.4309C10.6824 22.9976 10.4371 22.4261 10.399 21.7162C9.69419 21.6704 9.1244 21.4253 8.68961 20.9809C8.25483 20.5364 8.02219 19.973 7.99169 19.2906C7.29707 19.2499 6.71813 19.0092 6.25487 18.5686C5.79161 18.128 5.55997 17.5647 5.55997 16.8787C5.55997 16.5522 5.62413 16.2279 5.75245 15.9056C5.88076 15.5833 6.06272 15.302 6.29833 15.0618L12.6294 8.73685L15.8124 11.9199C15.9365 12.048 16.0817 12.1513 16.2481 12.2296C16.4144 12.3079 16.5891 12.347 16.772 12.347C17.0313 12.347 17.2658 12.2458 17.4753 12.0435C17.6848 11.8411 17.7895 11.6041 17.7895 11.3325C17.7895 11.1856 17.7544 11.0385 17.6842 10.8913C17.6141 10.7441 17.5149 10.6059 17.3868 10.4767L13.2129 6.30279C12.9403 6.02615 12.6412 5.82032 12.3155 5.6853C11.9898 5.5503 11.6464 5.4828 11.2853 5.4828C10.9328 5.4828 10.5973 5.5503 10.2791 5.6853C9.96085 5.82032 9.66379 6.0252 9.38793 6.29996L5.32119 10.3745C5.05369 10.6419 4.85295 10.9388 4.71896 11.265C4.58498 11.5912 4.51238 11.9471 4.50117 12.3326C4.48491 12.6544 4.53195 12.9688 4.6423 13.2757C4.75265 13.5826 4.89682 13.8639 5.07481 14.1197L3.9749 15.212C3.682 14.8326 3.44554 14.3859 3.26552 13.8718C3.08552 13.3577 2.99704 12.8347 3.00008 12.3028C3.00313 11.7338 3.11399 11.19 3.33266 10.6716C3.55131 10.1532 3.86125 9.69334 4.26247 9.29213L8.3044 5.25017C8.72852 4.83015 9.19511 4.51678 9.70418 4.31007C10.2133 4.10336 10.7468 4 11.3049 4C11.8629 4 12.3939 4.10336 12.8978 4.31007C13.4017 4.51678 13.8637 4.83015 14.2838 5.25017L15.0664 6.03282L15.849 5.25017C16.2731 4.83015 16.7378 4.51678 17.2431 4.31007C17.7484 4.10336 18.28 4 18.8381 4C19.3961 4 19.929 4.10336 20.4367 4.31007C20.9445 4.51678 21.4084 4.83015 21.8284 5.25017L26.7033 10.1251C27.1233 10.5451 27.4445 11.0237 27.6667 11.5609C27.8889 12.0981 28 12.6441 28 13.1989C28 13.7538 27.8889 14.2832 27.6667 14.7871C27.4445 15.2911 27.1233 15.7531 26.7033 16.1731L17.0534 25.8169C16.8043 26.0711 16.5245 26.2608 16.2141 26.3859C15.9038 26.511 15.5783 26.5735 15.2378 26.5735Z" fill="white"/>
</svg>
