<svg width="30" height="30" viewBox="0 0 30 30" fill="none" xmlns="http://www.w3.org/2000/svg">
<path d="M11.1239 26.1303C10.2721 26.1303 9.51709 25.8903 8.85898 25.4102C8.20084 24.9302 7.71865 24.2941 7.41239 23.5021C7.1517 23.8839 6.80875 24.1777 6.38355 24.3835C5.95834 24.5894 5.51567 24.6923 5.05554 24.6923C4.19657 24.6923 3.47258 24.3952 2.88356 23.8011C2.29452 23.207 2 22.4855 2 21.6368C2 20.8974 2.24858 20.2279 2.74573 19.6282C3.24288 19.0285 3.8718 18.7037 4.63248 18.6539C4.31624 18.2977 4.06908 17.8953 3.89101 17.4466C3.71295 16.9978 3.62392 16.5278 3.62392 16.0363C3.62392 15.3577 3.79415 14.7216 4.13459 14.1278C4.47506 13.534 4.95226 13.0477 5.56621 12.6688C5.63777 12.9174 5.73436 13.1832 5.85599 13.4663C5.97762 13.7494 6.1118 13.9978 6.25852 14.2115C5.95652 14.4437 5.72432 14.7217 5.56193 15.0456C5.39952 15.3694 5.31832 15.7089 5.31832 16.0641C5.31832 17.1581 5.74425 17.8486 6.5961 18.1357C7.44796 18.4227 8.28914 18.6474 9.11964 18.8098L9.50851 19.4744C9.3048 20.0669 9.13422 20.5698 8.99675 20.9829C8.85929 21.396 8.79056 21.7728 8.79056 22.1133C8.79056 22.7372 9.0155 23.2831 9.46539 23.7511C9.91529 24.219 10.4646 24.453 11.1133 24.453C11.8597 24.453 12.4751 24.1471 12.9594 23.5353C13.4437 22.9235 13.8412 22.2005 14.1517 21.3665C14.4623 20.5324 14.7016 19.682 14.8697 18.8152C15.0378 17.9484 15.1753 17.2621 15.2821 16.7564L16.9145 17.2008C16.755 17.9843 16.562 18.8882 16.3355 19.9124C16.109 20.9366 15.7888 21.9099 15.375 22.8323C14.9612 23.7546 14.4167 24.5349 13.7415 25.1731C13.0663 25.8113 12.1937 26.1303 11.1239 26.1303ZM5.05554 23.0256C5.4416 23.0256 5.7696 22.8907 6.03955 22.6207C6.30949 22.3508 6.44446 22.0228 6.44446 21.6368C6.44446 21.2507 6.30949 20.9227 6.03955 20.6527C5.7696 20.3828 5.4416 20.2478 5.05554 20.2478C4.6695 20.2478 4.34151 20.3828 4.07156 20.6527C3.80162 20.9227 3.66665 21.2507 3.66665 21.6368C3.66665 22.0228 3.80162 22.3508 4.07156 22.6207C4.34151 22.8907 4.6695 23.0256 5.05554 23.0256ZM12.3782 18.5406C11.5762 17.8241 10.8458 17.1549 10.187 16.5331C9.52812 15.9113 8.96029 15.3045 8.48347 14.7126C8.00664 14.1207 7.64018 13.5288 7.38411 12.937C7.12803 12.3451 6.99999 11.73 6.99999 11.0919C6.99999 9.96633 7.38527 9.01828 8.15583 8.24772C8.92639 7.47714 9.87444 7.09185 11 7.09185C11.1382 7.09185 11.2618 7.10005 11.3707 7.11644C11.4797 7.13282 11.589 7.1517 11.6987 7.17307C11.6175 6.995 11.5548 6.81452 11.5107 6.63163C11.4665 6.44874 11.4445 6.25671 11.4445 6.05554C11.4445 5.20678 11.7414 4.48533 12.3353 3.8912C12.9292 3.29707 13.6503 3 14.4987 3C15.3472 3 16.0687 3.29707 16.6635 3.8912C17.2582 4.48533 17.5555 5.20678 17.5555 6.05554C17.5555 6.25925 17.5335 6.44906 17.4893 6.62499C17.4452 6.80091 17.3825 6.97791 17.3013 7.15596C17.411 7.13459 17.5203 7.11857 17.6293 7.10788C17.7382 7.09719 17.8618 7.09185 18 7.09185C18.9758 7.09185 19.8152 7.38958 20.5182 7.98502C21.2212 8.58045 21.6681 9.32759 21.859 10.2265C21.605 10.1851 21.3193 10.1645 21.0019 10.1645C20.6844 10.1645 20.3925 10.1794 20.1261 10.2094C19.9609 9.78344 19.6909 9.43514 19.3163 9.16447C18.9416 8.89382 18.5044 8.7585 18.0047 8.7585C17.3321 8.7585 16.8027 8.94297 16.4167 9.31192C16.0306 9.68086 15.5157 10.2371 14.8718 10.9807H14.1004C13.438 10.2072 12.9138 9.64347 12.5278 9.28947C12.1417 8.93549 11.6325 8.7585 11 8.7585C10.3273 8.7585 9.77023 8.97922 9.32878 9.42067C8.88734 9.86212 8.66661 10.4192 8.66661 11.0919C8.66661 11.5201 8.78164 11.9622 9.0117 12.4184C9.24175 12.8745 9.56851 13.3572 9.99195 13.8664C10.4154 14.3757 10.9289 14.9174 11.5325 15.4914C12.1362 16.0655 12.8141 16.6859 13.5662 17.3526L12.3782 18.5406ZM14.5 7.44447C14.886 7.44447 15.214 7.30949 15.484 7.03955C15.754 6.76958 15.8889 6.44158 15.8889 6.05554C15.8889 5.6695 15.754 5.3415 15.484 5.07154C15.214 4.80159 14.886 4.66662 14.5 4.66662C14.114 4.66662 13.786 4.80159 13.516 5.07154C13.246 5.3415 13.1111 5.6695 13.1111 6.05554C13.1111 6.44158 13.246 6.76958 13.516 7.03955C13.786 7.30949 14.114 7.44447 14.5 7.44447ZM17.8269 26.141C17.4914 26.141 17.1597 26.0991 16.8318 26.0154C16.504 25.9316 16.1875 25.799 15.8825 25.6175C16.0358 25.4213 16.1892 25.1901 16.3425 24.9238C16.4958 24.6575 16.6352 24.4123 16.7607 24.1881C16.9448 24.287 17.1289 24.3577 17.313 24.4001C17.4972 24.4425 17.6813 24.4637 17.8654 24.4637C18.5221 24.4637 19.078 24.2301 19.5331 23.7628C19.9883 23.2955 20.2158 22.74 20.2158 22.0962C20.2158 21.7465 20.1471 21.3692 20.0096 20.9642C19.8722 20.5593 19.7016 20.0605 19.4979 19.4679L19.8974 18.8034C20.7465 18.641 21.5923 18.4145 22.4349 18.1239C23.2775 17.8333 23.6988 17.141 23.6988 16.047C23.6988 15.2279 23.4042 14.6267 22.8152 14.2436C22.2262 13.8603 21.572 13.6687 20.8526 13.6687C20.0903 13.6687 19.2011 13.8062 18.1847 14.0811C17.1684 14.3561 15.9872 14.7179 14.641 15.1666L14.1966 13.5342C15.5556 13.0997 16.7722 12.7322 17.8466 12.4316C18.921 12.131 19.9073 11.9807 20.8056 11.9807C22.005 11.9807 23.0648 12.3354 23.985 13.0449C24.9053 13.7542 25.3654 14.755 25.3654 16.047C25.3654 16.5354 25.2781 16.9994 25.1036 17.4389C24.9291 17.8785 24.6838 18.2835 24.3675 18.6539C25.1282 18.7108 25.7571 19.0356 26.2543 19.6282C26.7514 20.2208 27 20.8903 27 21.6368C27 22.4772 26.7055 23.1966 26.1164 23.7948C25.5274 24.3931 24.8034 24.6923 23.9445 24.6923C23.4843 24.6923 23.0417 24.5894 22.6165 24.3835C22.1912 24.1777 21.8483 23.8839 21.5876 23.5021C21.2814 24.2941 20.7956 24.932 20.1304 25.4156C19.4651 25.8992 18.6973 26.141 17.8269 26.141ZM23.9722 23.0256C24.3583 23.0256 24.6816 22.8907 24.9423 22.6207C25.203 22.3508 25.3334 22.0228 25.3334 21.6368C25.3334 21.2507 25.1984 20.9181 24.9284 20.6389C24.6585 20.3597 24.3305 20.2201 23.9445 20.2201C23.5584 20.2201 23.2304 20.355 22.9605 20.625C22.6905 20.8949 22.5555 21.2229 22.5555 21.609C22.5555 21.995 22.6951 22.3276 22.9743 22.6068C23.2535 22.886 23.5862 23.0256 23.9722 23.0256Z" fill="white"/>
</svg>
