<svg viewBox="0 0 20 20" width="20" height="20" fill="none" xmlns="http://www.w3.org/2000/svg">
    <path d="M5.468 3.7C7.303 5.082 9.276 7.93 10 9.387v3.97c0-.084-.033.011-.102.217-0.378 1.114-1.854 5.462-5.231 1.986-1.775-1.83-0.953-3.66 2.281-4.213-1.851 0.316-3.932-0.206-4.504-2.254C2.28 8.506 2 4.878 2 4.387 2 1.933 4.144 2.705 5.468 3.7ZM14.532 3.7C12.697 5.082 10.724 7.93 10 9.387v3.97c0-.084.033.011.102.217 0.378 1.114 1.854 5.462 5.231 1.986 1.775-1.83 0.953-3.66-2.281-4.213 1.851 0.316 3.932-0.206 4.504-2.254C17.72 8.506 18 4.878 18 4.387c0-2.454-2.144-1.682-3.468-0.687Z"
          fill="white"/>
</svg>
